<?xml version="1.0" standalone="no"?>
<!DOCTYPE svg PUBLIC "-//W3C//DTD SVG 1.1//EN" "http://www.w3.org/Graphics/SVG/1.1/DTD/svg11.dtd" >
<svg xmlns="http://www.w3.org/2000/svg">
<metadata>Generated by IcoMoon</metadata>
<defs>
<font id="icomoon" horiz-adv-x="1024">
<font-face units-per-em="1024" ascent="960" descent="-64" />
<missing-glyph horiz-adv-x="1024" />
<glyph unicode="&#x20;" d="" horiz-adv-x="512" />
<glyph unicode="&#xe600;" d="M803.471 929.28c6.545 0 12.974-1.503 18.088-4.229 9.9-5.28 16.579-13.341 19.313-23.308 3.105-11.327 0.844-24.105-6.363-35.975l-10.957-18.043 12.915-16.697c5.11-6.607 10.324-13.013 15.368-19.208 10.502-12.9 20.423-25.086 28.471-37.831 37.777-59.757 46.803-127.726 27.587-207.802-10.82-45.183-31.441-87.839-51.374-129.073-42.959-88.728-68.076-165.716-79.049-242.287-6.869-47.989-7.074-89.215-0.438-126.706-100.796 51.003-201.312 101.859-301.603 152.607-106.326 53.799-212.41 107.473-318.308 161.059 1.165 0.571 2.333 1.153 3.496 1.749 70.832 36.323 121.197 93.673 157.164 139.581 44.458 56.771 78.754 119.153 106.439 172.685 31.126 60.164 65.473 103.473 108.098 136.294 45.486 35.025 94.343 52.052 149.363 52.050 12.143 0 24.726-0.866 37.454-2.58 3.541-0.469 6.943-0.772 9.943-1.040 1.341-0.121 2.669-0.238 3.969-0.369l23.788-2.408 8.174 22.469c9.204 25.287 28.049 29.063 38.466 29.063zM803.471 960c-26.3 0-54.538-14.119-67.332-49.281-4.18 0.424-8.595 0.717-12.958 1.296-14.082 1.896-27.922 2.849-41.505 2.849-61.196 0-117.295-19.306-168.106-58.429-50.93-39.215-87.421-90.038-116.64-146.518-30.278-58.546-62.589-115.823-103.338-167.86-41.144-52.517-86.811-100.323-146.995-131.187-20.546-10.523-43.131-17.105-64.68-25.463 247.583-125.286 496.069-250.995 746.371-377.655-4.706 11.684-8.833 20.574-11.923 29.827-16.74 50.16-15.839 101.536-8.489 152.891 11.768 82.133 40.323 158.972 76.288 233.253 21.18 43.815 42.177 87.607 53.6 135.307 19.511 81.314 14.039 159.345-31.496 231.375-13.193 20.89-30.065 39.453-45.507 59.417 23.058 37.972 12.585 82.424-24.75 102.334-9.421 5.024-20.787 7.844-32.541 7.844v0zM525.365-64.227c65.21-1.368 117.062 59.658 104.45 123.415-0.979 4.839-4.655 10.889-8.808 13.033-41.597 21.627-83.452 42.783-125.604 63.326-4.469 2.173-11.979 1.456-16.683-0.815-42.678-20.574-65.632-69.306-55.183-115.794 10.838-48.421 52.113-82.133 101.829-83.165z" />
<glyph unicode="&#xe601;" d="M736.139 910.719c-4.18 0.424-8.595 0.717-12.958 1.296-77.527 10.445-147.522-7.774-209.609-55.581-50.93-39.215-87.421-90.038-116.64-146.518-30.278-58.546-62.589-115.823-103.338-167.86-41.144-52.517-86.811-100.323-146.995-131.187-20.546-10.523-43.131-17.105-64.68-25.463 247.583-125.286 496.069-250.995 746.371-377.655-4.706 11.684-8.833 20.574-11.923 29.827-16.74 50.16-15.839 101.536-8.489 152.891 11.768 82.133 40.323 158.972 76.288 233.253 21.18 43.815 42.177 87.607 53.6 135.307 19.511 81.314 14.039 159.345-31.496 231.375-13.193 20.89-30.065 39.453-45.507 59.417 23.058 37.972 12.585 82.424-24.75 102.334-30.513 16.263-81.365 9.437-99.875-41.437zM525.365-64.227c65.21-1.368 117.062 59.658 104.45 123.415-0.979 4.839-4.655 10.889-8.808 13.033-41.597 21.627-83.452 42.783-125.604 63.326-4.469 2.173-11.979 1.456-16.683-0.815-42.678-20.574-65.632-69.306-55.183-115.794 10.838-48.421 52.113-82.133 101.829-83.165z" />
<glyph unicode="&#xe602;" d="M542.958 237.322l-271.483-272.695-271.475 272.695h169.675v613.544h203.612v-613.544h169.671zM475.085 646.345l271.483 272.695 271.477-272.695h-169.675v-613.546h-203.612v613.546h-169.673z" />
<glyph unicode="&#xe603;" d="M360.907 329.579c-0.064-5.843-1.001-11.951-2.089-17.192-1.087-5.229-1.585-10.204-3.020-15.063-3.181-10.772-6.507-20.79-10.631-30.266-20.541-47.122-59.703-82.223-111.25-98.142-7.948-2.464-16.544-3.783-25.539-5.484-4.171-0.347-8.341-0.705-12.512-1.052-4.789-0.764-14.3-0.788-19.077 0-4.633 0.764-8.995 0.324-13.351 1.157-10.423 1.967-20.090 3.702-29.293 6.64-37.646 12.021-68.148 36.2-88.829 65.47-11.245 15.92-20.153 33.864-26.585 54.712-3.043 9.857-4.373 20.327-6.357 31.526-1.105 6.213-1.041 12.853-1.047 19.819 0 22.56 3.361 40.839 8.659 57.765 11.459 36.64 33.47 67.16 60.675 87.926 7.584 5.785 15.648 10.829 24.087 15.804 7.624 4.512 16.272 7.682 24.914 11.083 9.811 3.853 20.692 5.669 32.11 7.902 3.407 0.347 6.814 0.706 10.216 1.053 3.094 0.173 6.19 0.347 9.278 0.52 3.338 0 6.676 0 10.013 0 4.755-0.775 9.285-0.058 13.761-0.832 8.411-1.47 16.481-2.314 24.081-4.431 3.581-1.018 7.161-2.036 10.742-3.054 10.32 24.584 20.639 49.192 30.964 73.788 2.499 5.947 5.004 11.881 7.509 17.817 0.689 1.655 1.388 3.309 2.082 4.952 0.208 0.185 0.417 0.359 0.625 0.532 0.504 1.642-1.006 4.026-1.562 4.952-2.782 4.604-5.565 9.209-8.341 13.813-13.033-1.365-26.065-2.742-39.098-4.119-2.082-0.358-14.178-1.955-15.225-1.47-1.806 3.413-3.61 6.826-5.42 10.228-4.038 9.302-8.556 23.347-3.54 34.997 1.249 2.915 3.396 6.039 5.733 7.913 2.649 2.117 6.381 1.574 11.048 1.574 8.064 0 16.127 0 24.191 0 28.669 0 57.343 0 86.012 0 7.606 0 15.225 0 22.832 0 3.147 0 7.694 0.532 9.695-0.741 10.267-6.455 10.152-19.135 5.114-30.982-0.729-1.712-2.291-6.155-3.65-6.965-16.926-1.828-33.852-3.656-50.777-5.484 2.071-4.478 4.935-12.808 9.389-14.647 3.042-1.261 13.218-0.428 17.724-0.428 13.582 0 27.176 0 40.764 0 62.404 0 124.832 0 187.243 0 18.556 0 37.113 0 55.671 0 10.77 0 19.134-1.92 21.796 6.861 2.43 8.029-1.412 16.347-2.707 23.081-1.516 7.856 1.504 15.398 3.644 20.663 0.961 2.372 4.327 8.712 1.249 11.071-1.804 1.389-5.136 1.157-8.342 1.157-6.015 0-12.020 0-18.036 0-23.833 0-47.677 0-71.521 0-13.201 0-26.413 0-39.613 0-4.997 0-12.674-1.064-15.641 1.157-2.672 2.002-1.562 12.992-1.562 18.025 0 4.419-0.862 11.43 1.041 14.138 3.355 4.766 7.815 3.899 15.636 3.899 10.459 0 20.923 0 31.382 0 33.956 0 67.911 0 101.867 0 7.393 0 14.796 0 22.201 0 10.806 0 19.54 0.092 26.898-3.158 9.891-4.385 11.938-13.733 7.092-24.885-1.435-3.309-3.517-6.744-5.635-9.486-1.539-2.002-3.772-3.529-5.31-5.588-5.878-7.844-11.338-20.778-7.3-34.372 1.851-6.247 5.113-11.256 8.134-16.44 3.852-7.069 7.716-14.125 11.569-21.183 12.68-23.335 25.372-46.682 38.051-70.006 5.148-9.418 10.285-18.835 15.433-28.252 1.91 0.833 3.818 1.678 5.738 2.522 3.644 1.412 7.288 2.811 10.944 4.223 9.961 3.922 21.079 5.588 32.73 7.798 3.83 0.347 7.648 0.706 11.477 1.053 3.933 0.636 12.356 1.007 16.578 0.312 3.506-0.173 7.022-0.347 10.527-0.52 7.288-1.227 14.485-1.701 21.056-3.378 8.226-2.094 15.896-3.841 23.254-6.745 31.723-12.529 57.928-31.654 76.936-57.025 13.062-17.435 23.497-36.768 30.762-60.206 3.043-9.811 4.384-20.259 6.364-31.411 1.076-6.12 1.040-12.633 1.040-19.506 0-17.932-1.688-33.343-5.529-47.33-14.416-52.535-43.281-88.389-84.965-113.228-13.212-7.868-28.218-13.154-44.726-17.713-7.682-2.106-15.885-2.557-24.399-4.003-3.656-0.173-7.3-0.347-10.945-0.532-4.338-0.682-11.592-0.347-15.64 0.324-4.825 0.787-9.359 0.451-13.872 1.366-10.053 2.025-19.425 4.026-28.252 6.861-54.063 17.295-93.525 59.801-112.071 113.216-3.217 9.256-5.299 19.251-7.405 29.837-0.914 4.581-0.786 9.139-1.561 14.022-0.729 4.511-0.624 9.579-0.624 14.658 0.023 2.279 0.069 4.558 0.105 6.849 0.855 5.356 0.15 10.47 1.040 15.49 2.117 12.055 3.806 23.115 7.080 33.632 7.936 25.406 20.431 45.386 35.031 63.885 2.766 3.506 6.096 7.242 9.498 10.123 3.101 2.626 5.669 5.97 8.851 8.538 3.136 2.568 6.259 5.125 9.383 7.705-4.27 7.543-8.55 15.098-12.819 22.652-1.168 1.99-2.163 6.421-6.051 5.484-1.642-0.405-2.904-2.418-4.165-3.367-3.575-2.857-7.161-5.692-10.736-8.538-12.621-10.019-25.232-20.038-37.855-30.045-45.374-36.027-90.772-72.053-136.158-108.069 1.088-1.839 1.377-4.396 1.985-6.64 3.326-12.356 2.342-27.952-1.145-39.209-6.965-22.49-22.317-37.9-43.997-45.547-9.301-3.274-23.96-4.779-35.136-2.002-21.675 5.379-39.127 19.309-47.335 38.155-1.544 3.563-2.996 7.265-4.17 11.187-0.521 2.279-1.041 4.559-1.562 6.848-9.176 0.001-18.351 0.001-27.525 0.001zM665.971 569.096c-102.932-0.069-205.892-0.138-308.818-0.22 27.974-52.42 55.954-104.864 83.929-157.283 14.838 4.732 33.36-0.428 43.997-5.161 2.602-1.515 5.212-3.031 7.815-4.535 1.116-0.775 2.227-1.55 3.338-2.313 50.632 40.435 101.271 80.892 151.909 121.338 9.071 7.3 18.14 14.612 27.211 21.924 3.321 2.545 10.274 7.046 12.298 10.435 2.012 3.367 0.439 5.415-1.147 8.122-0.613 1.040-2.059 5.044-2.811 5.588-3.25 2.337-12.123 2.141-17.723 2.105zM360.074 365.316c10.285-0.035 20.576-0.069 30.86-0.105 1.92 8.168 6.826 15.572 11.257 21.508 1.249 1.469 2.499 2.949 3.754 4.419-23.318 41.498-46.641 83.009-69.959 124.507-6.565 11.696-13.137 23.404-19.703 35.101-1.735 3.101-3.477 6.19-5.211 9.279-0.839 1.446-1.412 3.471-2.713 4.431-5.165 3.806-8.26-8.642-9.799-11.916-5.767-13.212-11.54-26.424-17.308-39.636-1.492-3.413-2.99-6.815-4.483-10.228-0.451-0.995-1.77-2.985-1.458-3.899 2.482-0.96 4.743-2.985 6.878-4.431 5.612-3.783 10.754-7.856 15.954-12.020 2.187-2.036 4.379-4.073 6.565-6.109 7.317-5.958 13.606-13.895 19.286-21.508 10.285-13.767 18.806-28.784 25.649-46.173 2.342-5.958 3.835-12.089 5.738-18.556 2.181-7.428 4.113-16.058 4.692-24.666zM181.896 473.268c-2.262-0.139-4.518-0.289-6.78-0.428-4.205-0.59-8.411-1.191-12.616-1.793-11.28-2.534-20.951-6.039-30.334-10.227-6.831-3.032-13.085-7.416-18.875-11.592-19.841-14.334-34.829-33.921-44.513-58.506-1.806-4.57-2.916-9.232-4.385-14.23-4.362-14.831-6.086-38.097-2.499-55.346 1.92-9.232 3.76-17.793 6.884-25.73 4.714-12.009 10.684-22.779 17.828-32.36 3.344-4.489 7.393-8.317 10.84-12.657 1.319-1.226 2.638-2.453 3.963-3.69 4.697-3.818 9.018-7.89 14.074-11.488 14.907-10.61 30.016-16.706 51.397-20.975 3.506-0.705 7.485-0.728 11.262-1.365 1.423-0.046 2.852-0.081 4.275-0.105 2.604 0 5.212 0 7.815 0 1.915 0.058 3.829 0.139 5.739 0.209 4.101 0.52 8.202 1.040 12.303 1.574 8.098 1.792 15.694 3.609 22.728 6.432 30.462 12.253 55.914 35.633 68.913 65.47 5.507 12.633 10.348 26.309 11.887 43.119-41.84 0-83.691 0-125.526 0-6.045 1.516-10.655 2.118-13.761 6.433-6.71 9.289 2.060 24.804 5.316 32.463 14.073 33.377 28.148 66.778 42.222 100.155-0.070 0-0.139 0-0.209 0-2.256 0.556-4.518 1.122-6.773 1.678-9.215 2.336-19.559 2.938-31.174 2.961zM827.257 473.268c-4.141-0.359-8.271-0.706-12.415-1.053-8.595-1.62-16.717-3.066-23.982-5.912-2.464-0.96-5.276-1.457-7.392-2.846 17.191-31.549 34.406-63.11 51.61-94.659 4.789-8.793 9.59-17.574 14.38-26.355 1.006-1.747 5.495-8.908 5.53-10.342-9.66-5.854-19.321-11.731-28.993-17.596-0.105 0.069-0.208 0.138-0.313 0.208-24.388 43.245-48.787 86.526-73.186 129.772-1.84-1.087-3.171-2.904-4.791-4.211-5.542-4.512-10.401-10.262-14.705-16.024-10.181-13.64-17.723-28.379-23.254-47.017-1.574-5.344-2.060-10.829-3.123-16.764-1.735-9.707-1.933-24.943-0.105-34.8 1.389-7.462 2.406-14.531 4.489-21.183 8.666-27.825 24.191-50.025 44.831-65.782 5.716-4.374 11.881-8.053 18.245-11.801 5.276-3.124 11.175-5.021 17.203-7.381 13.686-5.38 38.954-9.371 57.65-5.705 8.562 1.69 16.637 3.032 23.982 5.913 36.86 14.496 62.149 39.659 76.624 76.75 11.164 28.587 10.342 67.633-0.938 95.295-18.463 45.294-57.962 81.529-121.349 81.494zM254.771 452.501c-9.070-20.801-18.14-41.615-27.211-62.416-2.297-5.161-4.587-10.331-6.883-15.491-0.683-1.608-1.985-4.13-0.729-6.12 2.649-4.188 16.237-2.846 23.248-2.846 22.485-0.069 44.975-0.138 67.46-0.208-0.486 2.534-0.978 5.055-1.464 7.59-1.446 5.703-2.863 11.337-4.899 16.556-10.419 26.701-26.95 48.533-49.522 62.935zM454.010 375.439c-1.041-0.116-2.088-0.22-3.13-0.324-2.117-0.556-4.24-1.123-6.357-1.689-9.324-3.748-16.185-11.061-19.291-21.079-5.674-18.303 5.461-34.384 17.307-39.636 3.761-1.667 9.361-3.968 15.428-2.95 14.034 2.36 22.722 9.023 27.32 20.767 2.766 7.068 2.465 17.828-0.312 24.561-4.865 11.766-14.427 20.408-30.965 20.35z" />
<glyph unicode="&#xe604;" d="M914.049 248.817c-0.009 167.139 0.416 334.285-0.186 501.423-0.384 106.156-90.548 194.139-197.752 194.277-132.794 0.178-265.58-0.386-398.374 0.27-119.345 0.586-207.951-87.928-207.256-206.279 0.87-148.301 0.162-296.626 0.162-444.934 0-48.033-0.255-96.067 0.255-144.086 0.361-34.746 23.639-60.303 58.299-65.568 2.566-0.385 5.057-1.194 8.17-1.949 0-21.613-0.308-42.724 0.069-63.828 0.709-39.209 29.451-67.155 69.060-67.433 20.965-0.147 41.936-0.147 62.902 0 39.663 0.278 68.219 28.295 68.789 67.596 0.239 16.902-0.046 33.812-0.085 50.714-0.008 4.44 0 8.865 0 13.373h268.624c0-22.529-0.354-44.018 0.077-65.499 0.77-38.122 29.165-65.784 67.619-66.177 20.186-0.202 40.38-0.062 60.574-0.032 44.003 0.071 72.135 27.663 72.413 71.126 0.131 19.947 0.023 39.894 0.023 60.373 49.005 6.198 69.652 39.95 66.964 81.354-1.836 28.312-0.348 56.843-0.348 85.278zM378.672 878.032h266.998v-64.589h-266.998v64.589zM244.629 149.018c-36.533-0.153-67.633 30.592-67.595 66.802 0.046 35.964 30.19 66.1 66.562 66.532 36.773 0.439 67.882-29.69 68.205-66.063 0.316-36.132-30.629-67.132-67.171-67.271zM177.504 348.899v396.617h669.411v-396.617h-669.411zM779.675 149.012c-36.203 0.462-66.817 31.006-66.695 66.554 0.131 37.142 31.076 67.264 68.613 66.786 36.095-0.455 66.37-31.092 66.153-66.933-0.215-36.032-31.824-66.863-68.072-66.407zM56.766 679.362c-18.506-0.232-33.128-13.211-33.343-31.408-0.517-44.882-0.401-89.762-0.055-134.643 0.124-15.562 10.683-28.935 26.037-31.085 13.088-1.819 26.637-0.37 40.133-0.37v197.53c-11.291 0-22.036 0.108-32.772-0.023zM1001.345 647.968c-0.208 17.797-14.268 30.716-32.35 31.324-10.837 0.37-21.704 0.076-33.743 0.076v-197.829c13.273 0 26.083-1.141 38.6 0.292 15.53 1.782 27.4 15.501 27.538 31.231 0.393 44.966 0.478 89.941-0.046 134.906z" />
<glyph unicode="&#xe605;" d="M1011.241 97.102c-0.162-61.178-41.792-100.832-106.074-100.868-263.187-0.179-526.354-0.162-789.522 0-57.050 0.037-100.097 41.378-100.403 96.903-0.538 96.507-0.287 193.013-0.287 289.519 0 111.479 0.035 222.975 0.162 334.453 0.072 63.835 40.965 102.7 108.085 102.916 19.764 0.072 39.512 0.017 61.628 0.017 0 11.507-0.197 20.716 0.035 29.925 1.024 38.829 27.018 65.774 62.74 65.146 37.878-0.664 64.984-28.148 65.433-66.439 0.090-8.778 0.018-17.575 0.018-27.501 134.366 0 267.925 0 403.673 0 0 9.047-0.036 18.113 0 27.179 0.144 39.152 26.138 66.923 62.56 66.869 37.788-0.072 65.541-28.561 65.756-67.533 0.054-8.348 0.017-16.713 0.017-26.388 4.615-0.467 8.546-1.149 12.478-1.184 16.155-0.144 32.312 0.018 48.468-0.090 63.602-0.431 105.106-39.816 105.249-100.277 0.215-83.725 0.144-167.451 0.144-251.177-0.001-123.828 0.16-247.657-0.163-371.468zM80.837 118.070c0.288-14.039 14.254-27.232 28.956-27.465 41.917-0.647 83.852-0.234 126.486-0.234-28.848 21.938-57.947 41.397-83.654 64.32-25.527 22.816-47.625 49.098-72.039 74.714 0-37.59-0.504-74.462 0.251-111.334zM311.944 743.551c-10.304-30.105-31.182-48.577-64.338-48.828-33.389-0.269-54.428 18.4-66.276 47.895-1.059-14.415-1.329-28.023-1.006-41.629 0.736-30.123 25.203-56.924 55.111-60.784 35.76-4.595 68.233 13.427 75.683 45.22 4.308 18.382 2.98 37.985 4.183 57.032-1.131 0.358-2.244 0.735-3.357 1.095zM845.137 747.321c-11.22-33.892-32.42-53.046-67.030-52.562-32.672 0.467-53.352 18.561-65.846 48.020 0-14.451-0.592-28.92 0.125-43.334 1.526-31.199 27.879-57.337 59.294-59.634 36.153-2.657 67.677 18.005 72.954 50.641 2.818 17.431 0.503 35.616 0.503 56.87zM946.060 550.843c0 5.116 0 10.232 0 15.923-288.982 0-576.026 0-865.744 0 0-6.247 0-11.417 0-16.57 0.036-61.699-0.162-123.38 0.341-185.079 0.072-8.473 1.525-18.095 5.906-25.186 18.221-29.512 35.49-59.957 57.319-86.957 55.955-69.238 124.835-123.451 212.276-153.429 13.284-4.542 27.609-8.94 41.468-8.994 168.528-0.611 337.038-0.431 505.566-0.341 31.755 0 42.814 10.34 42.831 40.246 0.108 140.129 0.037 280.257 0.037 420.387zM747.408 248.182c43.21 0 85.899 0 130.31 0 0-31.037 0-61.214 0-92.431-43.317 0-86.311 0-130.31 0 0 30.678 0 61.16 0 92.431zM747.535 502.105c43.873 0 86.562 0 130.094 0 0-30.894 0-61.053 0-92.396-42.94 0-85.969 0-130.094 0 0 30.248 0 60.73 0 92.396zM877.413 282.504c-43.37 0-86.382 0-130.183 0 0 30.841 0 61.017 0 92.755 43.766 0 86.453 0 130.183 0 0-30.858 0-61.359 0-92.755zM547.933 375.116c43.173 0 85.862 0 130.274 0 0-31.019 0-61.196 0-92.433-43.28 0-86.293 0-130.274 0 0 30.662 0 61.161 0 92.433zM548.094 501.853c42.976 0 86.006 0 129.951 0 0-30.751 0-61.233 0-92.522-43.406 0-86.096 0-129.951 0 0 30.553 0 61.035 0 92.522zM348.474 248.127c43.12 0 85.808 0 130.238 0 0-31.001 0-61.178 0-92.413-43.191 0-86.202 0-130.238 0 0 30.571 0 61.071 0 92.413zM348.295 375.224c43.64 0 86.31 0 130.076 0 0-30.804 0-61.286 0-92.683-43.245 0-86.239 0-130.076 0 0 30.733 0 60.891 0 92.683zM348.367 502.105c43.352 0 86.041 0 129.914 0 0-30.536 0-61.017 0-92.864-43.64 0-86.31 0-129.914 0 0 31.147 0 61.646 0 92.864zM149.016 502.068c43.964 0 86.634 0 130.112 0 0-30.912 0-61.089 0-92.378-43.047 0-86.041 0-130.112 0 0 30.392 0 60.873 0 92.378zM279.057 282.002c-23.409 0-47.122-0.126-70.837 0.215-2.136 0.017-4.865 2.55-6.283 4.578-17.054 24.484-34.072 48.971-50.641 73.743-2.477 3.716-2.514 8.94-3.985 14.667 45.471 0 88.159 0 131.745 0 0-30.859 0-61.036 0-93.204zM678.045 155.427c-43.443 0-86.114 0-129.951 0 0 30.608 0 61.106 0 92.558 43.047 0 86.042 0 129.951 0 0-30.536 0-60.712 0-92.558z" />
<glyph unicode="&#xe606;" d="M897.395 30.603h-769.2c-70.799 0-128.195 58.374-128.195 130.382v456.331c0 72.006 57.395 130.38 128.195 130.38h128.207c-0.002 54.010 43.045 130.384 96.141 130.384h320.504c53.094 0 96.141-76.374 96.141-130.384h128.207c70.795 0 128.193-58.374 128.193-130.38v-456.329c-0.002-72.010-57.397-130.384-128.193-130.384zM512.801 649.91c-123.906 0-224.348-102.154-224.348-228.17 0-126.005 100.44-228.159 224.348-228.159 123.904 0 224.348 102.154 224.348 228.159 0 126.015-100.444 228.17-224.348 228.17zM512.801 258.773c-88.51 0-160.256 72.964-160.256 162.968 0 90.014 71.746 162.98 160.256 162.98 88.5 0 160.246-72.964 160.246-162.98 0-90.006-71.746-162.968-160.246-162.968z" />
<glyph unicode="&#xe607;" d="M511.278-45.49c0 0-328.993 476.287-328.993 657.986s147.293 328.993 328.993 328.993c181.7 0 328.993-147.293 328.993-328.993s-328.993-657.986-328.993-657.986zM511.278 842.797c-127.199 0-230.301-103.117-230.301-230.301 0-127.17 103.102-230.301 230.301-230.301s230.301 103.131 230.301 230.301c0 127.184-103.102 230.301-230.301 230.301z" />
<glyph unicode="&#xe608;" d="M1024.727 665.555l-48.843 48.685-463.819-456.29-463.317 456.29-48.749-48.685 462.85-455.946-1.249-1.28 48.843-48.751 1.561 1.528 1.561-1.528 48.845 48.751-1.251 1.214z" />
<glyph unicode="&#xe609;" d="M806.882 622.505c37.299 0 74.606 0.007 111.904-0.008 6.362-0.008 12.739 0.094 19.077-0.282 36.090-2.173 59.513-26.599 59.67-62.627 0.235-54.822 0.212-109.644 0.203-164.466-0.015-125.136-0.148-250.28-0.109-375.416 0.008-41.597-25.203-66.872-66.486-66.864-225.046 0.040-450.093-0.047-675.138-0.086-57.262-0.008-114.515-0.118-171.769 0.071-37.15 0.118-61.764 26.717-61.874 66.761-0.149 57.606-0.047 115.205-0.031 172.812 0.055 148.174 0.103 296.356 0.173 444.53 0.023 43.433 14.245 61.121 56.61 72.706 163.588 44.719 327.089 89.736 490.653 134.549 104.193 28.553 208.402 57.042 312.665 85.336 37.62 10.205 68.431-7.405 78.935-44.993 13.131-47.018 25.987-94.121 38.6-141.279 9.624-36.012-8.385-67.326-44.421-77.351-45.527-12.668-91.179-24.92-136.777-37.361-4.11-1.121-8.189-2.345-12.284-3.513 0.132-0.839 0.266-1.678 0.399-2.517zM936.576 13.594c0 122.124 0 243.103 0 365.023-284.567 0-568.569 0-852.704 0 0-122.092 0-243.361 0-365.023 284.41 0 567.824 0 852.704 0zM491.073 760.451c1.004-2.416 1.24-3.608 1.899-4.487 30.293-40.264 60.736-80.41 90.818-120.83 4.26-5.734 8.51-5.46 14.323-3.836 26.748 7.429 53.583 14.535 80.362 21.846 8.99 2.455 17.924 5.154 28.137 8.111-32.537 43.103-63.725 84.646-95.376 125.843-1.89 2.463-7.843 3.749-11.194 2.871-36.042-9.422-71.937-19.392-108.969-29.518zM510.613 410.684c2.18-0.676 3.255-1.294 4.331-1.294 36.584-0.048 73.177-0.259 109.753 0.361 3.632 0.062 8.919 4.558 10.472 8.252 12.197 28.889 23.713 58.069 35.369 87.194 7.333 18.316 14.55 36.679 22.52 56.791-5.985 0-9.867 0-13.742 0-32.216 0-64.432-0.329-96.64 0.212-8.871 0.149-13.201-2.33-16.48-10.927-13.163-34.49-27.274-68.62-40.962-102.922-4.957-12.416-9.686-24.919-14.62-37.666zM697.317 816.441c0.486-1.969 0.463-2.886 0.894-3.467 30.796-40.962 61.514-81.994 92.733-122.642 2.016-2.62 8.299-3.946 11.907-3.059 23.525 5.781 46.877 12.283 70.244 18.668 12.754 3.49 25.446 7.201 39.55 11.209-25.885 34.271-50.484 66.918-75.177 99.494-7.664 10.111-13.814 25.226-23.847 28.615-10.503 3.545-24.944-3.883-37.478-7.201-26.349-6.973-52.571-14.386-78.825-21.618zM296.407 409.421c40.546 0 78.966-0.173 117.379 0.368 2.777 0.040 6.612 4.872 8.040 8.283 9.358 22.293 18.183 44.797 27.187 67.239 10.009 24.921 20.026 49.849 30.144 75.060-2.361 0.737-3.435 1.365-4.503 1.365-36.922 0.118-73.844 0.345-110.758-0.063-3.146-0.031-7.64-3.663-9.107-6.754-5.075-10.722-9.091-21.956-13.5-33-14.668-36.742-29.32-73.483-44.883-112.5zM906.651 561.988c-38.358 0-74.111-0.345-109.856 0.236-9.374 0.149-13.899-2.471-17.382-11.491-16.857-43.707-34.562-87.085-51.905-130.604-1.24-3.129-2.016-6.44-3.333-10.754 39.283 0 77.020-0.204 114.75 0.346 3.318 0.054 8.087 4.4 9.601 7.875 7.937 18.174 15.052 36.718 22.434 55.143 11.626 29.038 23.235 58.093 35.691 89.249zM285.237 704.413c0.879-2.392 1.051-3.647 1.71-4.534 25.807-34.287 51.512-68.651 77.735-102.624 2.322-3.004 7.994-4.729 12.159-4.816 23.453-0.47 47.041-1.741 70.337 0.188 17.665 1.459 34.961 7.295 54.304 11.602-26.819 35.502-51.676 68.447-76.589 101.353-7.428 9.813-13.304 24.583-23.007 27.862-10.173 3.435-24.183-3.859-36.349-7.083-26.725-7.084-53.339-14.559-80.3-21.949zM189.563 592.509c-24.959-0.125-45.457-20.575-45.59-45.479-0.134-25.572 20.638-46.429 46.084-46.273 25.328 0.15 46.075 21.399 45.668 46.783-0.4 24.818-21.218 45.095-46.162 44.969z" />
<glyph unicode="&#xe60a;" d="M510.294 960c-281.827 0-510.294-228.467-510.294-510.294s228.467-510.294 510.294-510.294c281.823 0 510.284 228.467 510.284 510.294s-228.458 510.294-510.284 510.294zM703.14 281.002l-20.519-20.521-168.704 168.702-175.956-175.958-20.519 20.521 175.956 175.958-175.958 175.958 20.519 20.519 175.96-175.958 168.704 168.704 20.519-20.519-168.704-168.704 168.702-168.702z" />
<glyph unicode="&#xe60b;" d="M1022.849 447.599c0-282.077-229.491-511.568-511.568-511.568s-511.564 229.489-511.562 511.568c-0.002 282.077 229.485 511.564 511.566 511.564 282.073 0 511.562-229.487 511.564-511.564zM55.685 447.599c-0.002-251.222 204.38-455.604 455.598-455.604 251.222 0 455.602 204.382 455.602 455.604 0 251.218-204.382 455.6-455.6 455.6-251.222 0-455.602-204.382-455.6-455.6zM301.435 689.736l-33.485-33.483 210.039-210.039-210.039-210.039 33.485-33.487 210.039 210.041 206.993-206.993 33.485 33.483-206.995 206.995 206.995 206.991-33.485 33.487-206.993-206.993z" />
<glyph unicode="&#xe60c;" d="M873.107 571.975l-16.801 39.72c57.618 129.694 53.78 133.544 42.58 144.804l-73.646 71.606-7.29 6.131h-8.545c-4.466 0-17.887 0-129.839-50.533l-41.18 16.535c-53.274 131.384-58.753 131.384-74.297 131.384h-103.915c-15.569 0-21.628 0.024-71.015-131.854l-41.011-16.583c-75.649 31.802-120.015 47.89-131.987 47.89l-9.824-0.301-79.197-77.304c-12.021-11.248-16.221-15.219 44.728-142.898l-16.776-39.587c-134.861-51.897-134.861-56.929-134.861-72.801v-101.404c0-15.908 0-21.496 135.318-69.759l16.776-39.514c-57.642-129.622-53.78-133.495-42.58-144.635l73.646-71.727 7.338-6.24h8.569c4.417 0 17.693 0 129.791 50.618l41.131-16.632c53.249-131.372 58.704-131.335 74.346-131.335h103.867c15.907 0 21.532 0 71.087 131.807l41.252 16.583c75.528-31.814 119.773-47.938 131.674-47.938l9.897 0.253 79.824 77.809c11.368 11.405 15.352 15.339-45.284 142.476l16.68 39.623c135.029 51.97 135.029 57.4 135.029 72.922v101.283c-0.025 15.943-0.025 21.543-135.487 69.603zM514.389 280.941c-95.249 0-172.829 75.697-172.829 168.726 0 92.956 77.58 168.605 172.829 168.605 95.225 0 172.612-75.661 172.612-168.605 0-93.029-77.412-168.726-172.612-168.726z" />
<glyph unicode="&#xe60d;" d="M841.828 598.687c-109.883-0.489-219.766-0.285-329.664-0.293-109.427-0.017-218.869 0-328.312-0.025-17.622-0.008-17.686-0.073-17.686-16.953-0.017-170.953-0.082-341.906 0.016-512.859 0.016-61.404 50.059-112.149 112.899-112.393 155.020-0.619 310.055-0.603 465.074-0.016 60.199 0.228 112.719 50.597 112.834 107.292 0.358 173.145 0.098 346.299 0.389 519.453 0.017 11.49-2.771 15.851-15.55 15.794zM342.587 76.397c-11.916-9.111-25.070-11.834-38.827-5.249-13.987 6.684-23.93 16.888-23.93 33.581v184.45h-0.391c0 54.9-0.017 109.793 0 164.694 0 7.905 0.423 15.82 0.048 23.71-0.375 7.629 3.473 10.025 10.465 9.999 19.202-0.082 38.405-0.178 57.59 0.115 8.705 0.138 11.524-3.44 11.493-11.876-0.228-79.506-0.147-159.013-0.131-238.519 0-41.73-0.097-83.459 0.147-125.189 0.097-14.589-4.63-26.652-16.464-35.716zM551.496 291.306h0.114c0-58.854 0.309-117.723-0.326-176.569-0.099-9.666-2.397-20.393-7.157-28.689-8.459-14.784-26.716-21.143-41.484-17.278-17.458 4.58-30.043 18.86-30.434 37.295-0.766 37.312-0.619 74.666-0.652 111.994-0.065 83.459-0.049 166.918-0.017 250.378 0.017 19.121 0.082 19.161 19.040 19.219 15.633 0.057 31.264-0.375 46.881 0.131 9.976 0.326 14.328-2.454 14.246-13.318-0.457-61.048-0.212-122.108-0.212-183.163zM743.503 121.649c-0.082-10.791-0.457-22.381-4.419-32.129-6.39-15.747-26.505-24.466-42.185-21.158-17.719 3.749-31.803 19.022-32.162 37.427-0.733 36.888-0.522 73.793-0.554 110.697-0.049 84.34-0.034 168.681 0 253.019 0 18.012 0.098 18.062 18.778 18.142 16.528 0.066 33.040-0.203 49.569 0.082 7.612 0.139 11.214-1.842 11.166-10.351-0.293-62.368-0.163-124.733-0.163-187.099h0.147c0.001-56.213 0.212-112.426-0.177-168.63zM894.642 695.082c-7.546 54.542-47.843 92.416-103.461 92.995-36.187 0.375-72.407 0.692-108.579-0.074-13.073-0.277-18.728 1.882-19.316 16.667-1.157 29.806-13.318 56.45-32.52 79.344-41.418 49.4-104.812 67.916-165.125 49.114-61.144-19.064-101.439-69.074-106.509-133.389-0.766-9.496-4.238-11.639-13.040-11.581-39.317 0.276-78.65 0.431-117.968-0.18-35.161-0.546-62.562-15.812-81.862-44.843-11.786-17.744-16.904-37.467-18.356-58.447-2.2-31.843 10.677-45.756 43.099-45.756 113.061-0.017 226.139-0.008 339.201-0.008 110.844 0 221.689 0.782 332.501-0.424 37.784-0.415 58.242 11.085 51.934 56.58zM560.983 788.069c-16.921 0.179-33.841 0.057-50.76 0.057-16.024-0.008-32.048 0.13-48.088-0.057-7.645-0.098-10.041 2.698-8.851 10.4 4.352 28.078 29.031 48.764 59.025 48.813 28.102 0.041 53.922-21.982 57.867-48.877 1.124-7.694-1.662-10.417-9.194-10.335z" />
<glyph unicode="&#xe60e;" d="M151.546 318.715c15.438 4.718 34.742 13.378 57.471 29.195v99.906c-19.233 6.887-38.437 15.254-57.471 25.049v-154.15zM756.982 55.623h-547.965v62.655c-21.724 13.284-41.077 28.471-57.471 45.343v-165.469h662.907v167.024h-57.471v-109.553zM209.017 840.372h605.438v57.471h-662.909v-158.902c19.034 9.793 38.238 18.161 57.471 25.049v76.382zM209.017 502.151c0.741-0.304 1.481-0.609 2.228-0.911 37.476-15.133 80.476-26.079 126.492-26.079 46.014 0 89.016 10.946 126.49 26.079 64.922 26.215 113.236 64.993 131.827 81.257 4.721 4.126 7.532 6.809 8.204 7.458l16.515 15.946-16.515 15.946c-1.235 1.195-9.681 9.24-23.978 20.558-24.125 19.097-64.934 47.519-116.045 68.159-37.476 15.133-80.479 26.080-126.497 26.080s-89.022-10.947-126.497-26.080c-0.745-0.3-1.483-0.604-2.223-0.91-21.097-8.662-40.412-18.617-57.471-28.655-47.77-28.113-77.906-56.808-80.331-59.152l-16.514-15.946 16.514-15.946c2.425-2.343 32.561-31.038 80.331-59.147 17.059-10.038 36.374-19.995 57.471-28.657zM427.349 622.7c-5.629 30.208-26.128 55.177-53.638 67.003 47.023-6.699 89.788-25.384 123.59-44.806 24.456-14.048 44.228-28.476 57.481-39.023-13.25-10.575-33.024-25.033-57.515-39.1-33.768-19.397-76.518-38.041-123.626-44.699 27.548 11.813 48.083 36.809 53.712 67.054 1.013 5.438 1.568 11.041 1.568 16.775 0 5.741-0.555 11.35-1.571 16.796zM151.546 628.372c8.069 5.396 16.988 10.987 26.625 16.524 9.596 5.514 19.913 10.959 30.845 16.097 2.358 1.107 4.744 2.199 7.154 3.274 25.831 11.511 54.794 21.049 85.587 25.437-27.506-11.826-48.006-36.793-53.635-67-1.013-5.45-1.571-11.059-1.571-16.8 0-5.744 0.558-11.353 1.571-16.801 5.632-30.21 26.134-55.18 53.648-67.003-33.676 4.798-65.164 15.75-92.755 28.712-0.016 0.008-0.033 0.013-0.048 0.021-10.915 5.13-21.215 10.568-30.795 16.072-9.64 5.537-18.56 11.131-26.629 16.525-12.383 8.279-22.796 16.087-30.821 22.469 8.028 6.386 18.442 14.192 30.821 22.471zM173.973 216.9c9.258-11.882 21.555-24.86 34.277-35.139 0.253-0.204 0.514-0.404 0.767-0.609 6.975-5.588 14.458-10.913 22.379-15.975 16.507-10.55 34.967-19.914 55.123-27.845 48.19-18.962 103.986-28.983 161.355-28.983 57.374 0 113.172 10.023 161.36 28.985 20.158 7.931 38.616 17.295 55.121 27.844 8.207 5.245 15.952 10.772 23.144 16.586 12.688 10.253 25.123 23.277 34.379 35.138h91.146v44.335h-30.599v0.074c-5.438 0-14.052 0.003-25.442 1.604-6.947 0.979-14.929 2.555-23.857 5.089-18.808 5.337-41.803 14.931-68.154 32.19-5.892 3.86-11.951 8.107-18.169 12.768-6.86 5.146-13.908 10.795-21.144 17.016-47.831 41.146-96.412 45.903-128.732 42.657-21.52-2.164-38.634-7.984-49.052-12.394-10.42 4.41-27.53 10.228-49.049 12.394-32.322 3.25-80.903-1.511-128.733-42.657-7.231-6.222-14.284-11.87-21.144-17.016-6.218-4.665-12.282-8.915-18.174-12.772-7.534-4.934-14.791-9.238-21.757-12.998-22.414-12.103-41.788-18.547-57.471-21.975-17.837-3.9-30.903-3.905-38.218-3.905v-0.074h-30.601v-44.335h91.244zM258.624 265.458c12.895 8.665 26.381 18.869 40.381 30.908 7.834 6.739 15.667 12.195 23.399 16.593 59 33.57 112.022 4.844 114.438 3.501l10.773-6.479 11.182 6.415c2.507 1.404 55.546 30.136 114.551-3.437 7.732-4.399 15.563-9.854 23.399-16.593 13.415-11.539 26.891-21.836 40.384-30.901 2.144-1.443 4.291-2.849 6.437-4.228h-391.37c2.126 1.363 4.268 2.77 6.427 4.222zM279.072 216.9h381.405c-6.090-4.993-12.658-9.749-19.665-14.24-25.128-16.112-55.822-28.885-89.883-37.484-32.013-8.084-66.977-12.494-103.055-12.494-36.080 0-71.041 4.412-103.057 12.494-34.052 8.599-64.752 21.374-89.878 37.483-7.011 4.491-13.58 9.248-19.673 14.241h43.806zM897.293 740.946c-21.778 23.154-50.566 38.501-83.251 44.384-9.934 1.787-20.187 2.693-30.481 2.693-8.785 0-17.624-0.573-26.281-1.698-34.78-4.53-64.758-18.156-86.697-39.405-21.982-21.292-34.826-49.248-37.146-80.852-0.292-3.972-0.43-7.315-0.43-10.522 0-29.811 10.596-57.157 30.643-79.087 15.811-17.294 36.965-30.959 62.875-40.617l5.511-2.056 15.259 40.949-5.511 2.054c-3.276 1.222-6.516 2.56-9.624 3.972-45.836 20.839-55.458 52.17-55.458 74.784 0 25.987 10.023 48.139 28.983 64.060 7.599 6.384 16.542 11.649 26.576 15.65 7.552 3.008 15.731 5.297 24.318 6.801 8.586 1.507 17.663 2.271 26.982 2.271 10.949 0 21.537-1.287 31.466-3.826 11.984-3.062 23.072-8.002 32.959-14.681 7.271-4.913 13.882-10.732 19.648-17.299 18.158-20.688 28.571-49.471 28.571-78.97 0-30.197-10.58-49.834-25.225-77.009l-0.77-1.43c-6.757-12.547-14.415-26.767-21.386-43.192-5.433-12.818-9.801-25.405-13.355-38.486-3.709-13.655-8.888-35.565-13.071-53.251l-3.387-14.261c-0.654-2.742-1.429-5.394-2.36-8.108-7.095-20.686-20.763-31.174-40.624-31.174-6.854 0-13.855 2.018-20.245 5.836-3.545 2.12-6.808 4.732-9.708 7.76-7.8 8.159-12.013 18.522-11.566 28.432 0.839 18.691 4.834 53.131 6.279 60.287 0.944 4.621 4.892 7.931 9.598 8.048 1.908 0.048 3.941 0.166 6.396 0.374 20.259 1.732 39.716 9.254 56.267 21.749 13.407 10.121 24.318 23.153 31.55 37.686 6.698 13.455 10.097 27.607 10.097 42.064 0 15.138-3.496 30.34-10.108 43.96-7.195 14.836-18.092 27.85-31.507 37.64-1.212 0.885-2.438 1.754-3.701 2.591-15.621 10.387-33.765 16.212-52.474 16.844-1.144 0.038-2.297 0.064-3.45 0.064-6.665 0-13.353-0.662-19.875-1.966-6.673-1.333-13.266-3.358-19.598-6.016l-5.422-2.276 16.919-40.289 5.433 2.281c0.319 0.133 0.639 0.256 0.961 0.381l0.401 0.153c6.975 2.739 14.153 4.128 21.335 4.128 1.025 0 2.11-0.039 3.521-0.131 9.898-0.631 19.603-3.938 28.062-9.562 16.162-10.745 25.811-28.616 25.811-47.803 0-27.537-23.57-52.771-53.661-57.451-2.737-0.427-5.438-0.675-8.025-0.739-5.276-0.13-10.483-1.016-15.474-2.639-18.276-5.941-32.021-21.424-35.873-40.402-2.172-10.732-6.22-47.203-7.113-67.016-0.977-21.767 7.637-43.854 23.637-60.594 5.823-6.089 12.483-11.328 19.798-15.575 7.327-4.251 15.141-7.378 23.228-9.296 6.197-1.471 12.425-2.217 18.511-2.217 13.66 0 26.256 2.647 37.437 7.865 12.455 5.809 22.99 14.737 31.315 26.532 7.562 10.709 13.19 23.635 16.731 38.407l3.517 14.827c3.849 16.268 9.121 38.548 12.609 51.409 8.098 29.808 19.763 51.464 31.056 72.422 15.941 29.606 30.998 57.571 30.998 99.347-0.002 42.63-15.061 82.116-42.402 111.188z" />
<glyph unicode="&#xe60f;" d="M131.799 48.241c0 14.281 0.467 28.582-0.336 42.813-0.203 3.305-4.252 8.266-7.463 9.224-43.125 12.505-69.288 43.196-73.695 87.902-5.689 57.453-13.416 114.809-16.148 172.405-3.426 72.327-3.486 144.873-3.426 217.274 0.047 42.359 1.808 84.812 5.222 127.003 4.313 53.977 10.183 107.932 17.095 161.622 4.708 36.307 40.454 67.752 77.65 72.196 89.747 10.746 179.757 18.004 270.186 19.311 63.347 0.911 126.763 3.211 190.011 1.223 76.38-2.396 152.615-8.481 228.872-13.441 21.778-1.425 43.579-3.607 65.19-6.793 50.123-7.367 79.661-39.35 84.525-89.58 4.553-46.813 10.588-93.581 14.037-140.491 3.234-44.227 4.864-88.574 5.509-132.87 0.815-53.858 1.534-107.813-0.766-161.55-2.54-58.888-8.387-117.61-13.224-176.355-1.581-18.901-4.362-37.685-6.9-56.467-5.558-41.351-30.14-67.084-68.905-79.757-9.2-2.994-11.381-7.041-11.381-15.813 0-30.089 1.030-60.35-1.798-90.202-3.066-32.774-25.227-55.032-58.051-58.073-28.031-2.564-56.707-2.707-84.693-0.025-36.033 3.473-58.601 31.193-59.128 67.49-0.289 22.209-0.408 44.417 0.025 66.603 0.168 9.128-3.305 11.092-12.052 11.020-92.813-0.934-185.602-1.509-278.393-1.892-16.316-0.096-32.631 1.102-48.923 1.964-7.821 0.457-9.343-3.713-9.296-10.254 0.119-21.803 0.19-43.604-0.025-65.407-0.444-43.364-27.408-70.197-71.205-70.844-19.55-0.289-39.076-0.432-58.601-0.121-45.269 0.741-72.593 27.648-73.826 72.665-0.358 13.081-0.072 26.161-0.072 39.217h-0.016zM509.512 412.715v0.096c102.085 0 204.147 0.551 306.209-0.385 24.533-0.264 40.511 19.765 40.536 39.125 0 15.86 0.096 31.697 0.121 47.532 0.072 60.662 0.24 121.301 0.025 181.938-0.047 23.575-17.609 42.453-39.313 42.693-62.171 0.743-124.369 1.821-186.513 1.724-141.523-0.215-283.030-1.077-424.516-1.628-24.773-0.119-42.562-17.562-42.752-42.596-0.205-23.359-0.047-46.766-0.025-70.126 0.025-53.547-0.227-107.020 0.24-160.543 0.227-22.426 15.944-37.806 37.386-37.806 102.873-0.072 205.761-0.025 308.603-0.025zM509.823 788.595v0.096h50.217c50.6-0.025 101.2-0.289 151.8 0.025 26.64 0.143 41.015 15.022 41.445 41.566 0.121 6.324 0.289 12.722-0.096 19.024-1.292 23.431-18.352 43.256-39.674 45.509-16.626 1.749-33.303 3.582-49.975 3.533-47.006-0.119-93.989-1.69-140.995-1.808-62.124-0.131-124.236 0.778-186.382 0.778-11.452 0-23.132-1.077-34.32-3.535-23.456-5.104-35.039-24.689-35.375-57.416-0.346-34.021 13.226-47.749 47.317-47.774 65.333-0.045 130.691 0.002 196.039 0.002zM251.673 172.415c47.426-0.047 87.951 40.010 87.998 86.993 0.025 47.604-40.751 88.117-88.416 87.878-47.616-0.264-87.712-39.913-87.998-87.136-0.324-47.198 40.501-87.71 88.416-87.734zM769.051 172.415c47.389 0.047 87.542 40.153 87.47 87.4-0.047 47.1-40.395 87.423-87.47 87.47-48.132 0.072-88.838-40.034-88.885-87.517-0.074-47.151 40.872-87.448 88.885-87.353z" />
<glyph unicode="&#xe610;" d="M1019.967 356.612c-13.39-93.073-89.688-167.516-184.662-178.835-24.533-2.929-49.478-2.472-77.808-3.729 73.413 86.305 28.568 188.119-92.203 179.808-0.295 4.688-0.825 9.376-0.836 14.064-0.086 28.232-0.598 56.474 0.051 84.697 1.89 82.657-72.403 147.78-153.735 147.476-81.92-0.326-156.070-66.23-153.086-151.081 1.106-31.261 0.184-62.593 0.184-96.373-10.113 0-19.053 0.303-27.984-0.043-86.585-3.408-128.043-78.873-83.72-152.439 4.774-7.918 10.297-15.397 15.71-23.425-135.258-16.108-229.798 59.030-255.805 161.933-24.25 95.982 25.954 199.557 118.104 241.56 7.889 3.592 10.676 7.021 9.613 15.831-7.694 64.233 22.622 123.421 78.121 153.836 55.955 30.652 122.923 24.369 174.95-16.361 2.093-1.649 4.264-3.201 7.498-5.609 4.448 7.823 8.364 15.167 12.683 22.274 49.725 81.867 123.259 125.364 219.73 127.805 151.165 3.82 273.154-129.053 256.674-278.016-1.065-9.613 0.889-14.041 10.217-18.002 88.705-37.618 140.061-129.735 126.302-225.37zM324.010 296.35c15.178 2.103 30.792 1.356 46.211 1.616 13.607 0.227 27.222 0.053 42.76 0.053 0.575 5.708 1.585 11.121 1.608 16.536 0.129 46.135-0.086 92.26 0.129 138.385 0.238 50.528 43.151 90.946 96.285 91.087 53.549 0.139 97.284-41.167 97.294-91.892 0.012-50.573 0.012-101.136 0.012-154.204 24.748 0 47.829 0.52 70.853-0.227 11.209-0.358 22.761-1.739 33.386-5.057 19.921-6.238 29.633-22.417 23.415-42.066-4.317-13.674-11.219-28.103-21.135-38.216-56.855-57.899-113.601-116.056-178.801-165.194-22.753-17.156-28.451-18.598-49.783 0.076-53.608 46.926-106.191 95.023-158.251 143.634-13.965 13.021-27.083 28.178-36.209 44.714-17.373 31.478-3.875 55.753 32.225 60.754z" />
<glyph unicode="&#xe611;" d="M910.755 292.542c-7.15 3.248-12.831 4.872-17.289 8.197-3.388 2.507-6.888 6.943-7.455 10.933-3.259 23.305-5.82 46.707-8.262 70.121-0.654 6.344-2.748 10.159-8.982 12.928-19.163 8.459-37.955 17.811-60.093 28.318 27.294-71.602 53.465-140.273 80.181-210.351-8.6 1.309-15.576 2.399-22.891 3.511-2.059-8.993 0.316-14.214 8.852-18.52 42.653-21.561 84.945-43.873 127.356-65.936 3.347-1.743 6.617-3.651 11.064-6.114-8.416-17.713-16.58-34.914-24.678-51.962-29.965 6.366-30.793 7.629-25.474 39.066-18.029 7.369-35.895 16.209-54.675 22.051-37.127 11.554-68.736 30.815-92.684 61.978-6.476 8.426-14.268 10.213-24.024 8.295-8.241-1.636-16.656-3.619-24.94-3.412-18.28 0.468-28.908-9.908-40.886-22.378-20.722-21.604-30.75-46.479-35.219-75.538-4.501-29.301-11.956-58.119-17.593-87.267-1.232-6.366-3.695-8.316-9.799-7.913-11.053 0.709-22.149 0.763-33.224 1.189-13.057 0.501-22.508 12.807-19.979 25.898 1.602 8.273 2.714 8.851 21.506 10.584 1.396 25.060 2.823 50.358 4.186 75.646 0.86 16.198 1.285 32.428 2.659 48.572 0.338 4.078 2.79 8.666 5.669 11.665 7.946 8.305 16.622 15.892 24.896 23.652-0.218 1.046-0.131 2.115-0.556 2.376-15.141 9.832-12.72 23.283-9.189 38.248 13.712 58.142 26.596 116.479 39.764 174.752 0.566 2.561 0.86 5.177 1.689 10.257-15-7.979-28.744-14.214-41.366-22.258-18.705-11.925-38.239-17.255-60.561-15.849-23.599 1.493-47.383 0.85-71.058 0.12-12.127-0.381-24.182-2.998-39.764-5.057-8.317 7.358-17.2 17.647-15.898 35.796 2.011 28.067 1.123 56.354 1.014 84.552-0.016 3.379-2.066 8.938-4.485 9.821-28.265 10.323-56.779 19.947-86.187 30.084-0.327-3.412-0.67-5.57-0.714-7.718-0.915-44.026-2.027-88.040-2.453-132.055-0.066-6.966 2.654-14.061 4.703-20.907 1.194-4 3.591-7.64 5.477-11.433 18.645-37.551 33.006-78.274 57.155-111.781 24.193-33.573 58.251-59.863 87.79-89.534 11.325-11.379 22.117-23.305 33.911-35.785-22.618-21.866-45.127-44.92-69.402-65.892-4.365-3.771-17.309-1.351-24.034 2.376-20.356 11.271-19.926 12.066-11.026 33.725 7.020 17.114 7.031 17.114-6.305 29.202-6.54 5.941-12.612 12.557-19.767 17.604-49.841 35.206-78.557 87.299-108.958 138.104-6.109 10.202-12.464 20.275-19.479 31.654-3.526-6.169-6.507-11.303-9.418-16.481-3.205-5.712-5.914-11.751-9.581-17.124-42.26-61.902-63.472-131.75-76.427-204.846-3.014-17.015-7.728-33.714-11.902-51.58-32.745 8.219-64.797 16.252-97.421 24.438 1.543 11.141 6.752 18.595 17.413 21.701 10.834 3.172 16.083 9.102 17.506 21.79 4.768 42.532 11.358 84.869 17.56 127.225 1.046 7.173 2.932 14.4 5.625 21.103 19.642 48.953 39.616 97.753 59.389 146.651 1.564 3.868 3.286 8.010 3.417 12.076 1.564 47.481 2.839 94.963 4.153 142.443 0.022 0.676-0.436 1.352-1.058 3.118-2.447-2.093-4.605-3.88-6.709-5.745-0.861-0.763-1.586-1.668-2.381-2.507-21.49-22.476-40.379-48.669-65.199-66.371-24.804-17.702-55.526-26.934-83.68-39.807-14.944-6.835-29.948-13.516-44.832-20.22-17.969 15.118-20.705 23.555-13.048 44.538 1.363 3.716 5.642 7.009 9.342 9.123 32.891 18.781 65.994 37.192 98.924 55.929 4.218 2.398 8.649 5.286 11.527 9.080 23.473 30.892 47.192 61.63 69.548 93.349 8.41 11.924 17.092 22.344 30.232 28.733 4.79 2.333 9.178 5.515 13.783 8.262 14.060 8.383 19.827 21.725 14.992 36.973-0.943 2.998-4.9 5.428-7.973 7.26-40.33 23.915-55.286 73.892-34.439 115.564 20.945 41.835 70.699 59.645 113.634 40.668 58.371-25.801 68.327-109.841 16.977-148.711-12.884-9.767-13.521-24.274-19.511-36.733-0.638-1.319 0.889-4.534 2.321-5.909 14.263-13.734 27.213-29.572 43.415-40.407 39.453-26.39 80.236-50.784 120.927-75.222 14.372-8.633 20.475-21.277 22.121-36.799 2.845-26.869 5.276-53.781 7.385-80.715 0.584-7.455 2.42-10.879 10.769-10.65 30.554 0.829 61.14 0.676 91.704 1.483 4.872 0.131 10.508 2.245 14.378 5.286 29.528 23.24 58.741 46.903 87.996 70.514 11.379 9.178 10.693 17.854-1.853 25.31-24.263 14.41-35.828 43.012-28.623 70.774 6.932 26.728 30.673 45.355 59.035 46.325 27.163 0.937 52.157-17.407 60.408-44.363 8.207-26.804-1.733-55.95-25.441-70.796-7.434-4.666-8.731-8.83-7.587-17.266 1.788-13.276 5.897-21.724 18.824-29.071 39.23-22.313 77.098-47.088 115.149-71.451 3.51-2.245 6.628-8.437 6.464-12.666-1.166-32.406-2.605-64.833-5.406-97.131-0.608-7.052-6.995-13.591-10.952-20.764z" />
<glyph unicode="&#xe612;" d="M874.361 618.24c4.723 19.29 7.696 39.287 14.735 57.719 7.055 18.618 27.879 27.245 44.868 22.292 17.822-5.173 30.577-22.424 28.062-41.605-6.334-48.112 0.24-97.085-15.62-144.931-11.34-34.224-4.723-70.857 9.486-104.235 9.996-23.472 5.958-41.912-9.927-60.86-107.303-128.213-214.155-256.756-321.149-385.188-20.802-24.969-32.692-28.742-64.018-18.905-115.13 36.135-230.238 72.489-345.346 108.757-40.083 12.638-80.054 25.678-120.291 37.853-34.636 10.48-59.65 32.164-74.936 63.664-25.434 52.371-28.213 105.251-0.684 158.456 3.508 6.773 3.619 18.354 0.111 25.041-30.906 58.851-25.987 175.219 33.223 237.132 114.225 119.472 223.84 243.239 334.711 365.781 16.925 18.708 33.995 24.4 59.212 18.641 158.102-36.145 316.512-70.912 474.767-106.263 45.621-10.158 54.049-36.090 23.564-71.629-115.995-135.041-232.225-269.847-347.707-405.285-18.113-21.242-36.62-27.333-64.217-18.885-127.701 39.182-255.891 76.769-383.951 114.856-48.443 14.383-72.137-3.94-68.938-53.662 0.774-11.909 1.126-25.014 6.377-35.183 4.962-9.619 14.803-20.32 24.75-23.411 148.33-45.861 297.079-90.466 445.63-135.688 10.703-3.217 17.119-1.217 24.244 7.5 96.002 117.381 192.604 234.277 288.236 351.965 7.143 8.802 7.784 22.723 11.428 34.269-2.208 0.61-4.415 1.196-6.619 1.802zM863.128 448.67c-7.012-8.188-13.124-15.045-18.944-22.106-73.155-88.947-146.215-177.91-219.41-266.834-20.011-24.31-33.268-28.236-64.15-18.973-70.064 21.002-140.122 42.131-210.186 63.289-79.768 24.064-159.47 48.355-239.438 71.938-6.33 1.831-17.691 1.343-20.824-2.628-19.28-24.355-12.306-98.183 31.281-111.51 145.816-44.427 290.947-90.999 436.212-137.081 10.721-3.396 16.986-1.217 24.136 7.387 95.427 115.11 191.3 229.841 286.71 344.926 4.123 4.966 7.565 13.019 6.685 18.95-2.562 16.902-7.479 33.468-12.071 52.64zM422.089 826.087c-26.561 1.016-33.157-2.955-55.656-29.569-20.824-24.596-18.641-32.008 12.487-39.51 74.408-17.912 149.385-33.763 223.091-54.082 37.151-10.224 62.517-2.681 84.070 28.082 14.934 21.299 14.275 28.015-11.227 34.337-55.902 13.777-111.929 26.946-167.92 40.391-30.269 7.27-60.557 14.529-84.845 20.351z" />
<glyph unicode="&#xe613;" d="M562.131 159.029c-2.836 13.001-15.139 23.187-28.738 22.54-6.441-0.289-12.929-2.476-19.175-4.446-51.278-16.364-103.037-19.223-155.275-5.022-116.564 31.67-190.55 109.367-238.895 214.53-1.106 2.392-0.625 5.493-0.864 8.278 2.212 1.837 4.375 3.713 6.56 5.589 1.948-4.602 2.908-9.947 5.935-13.662 35.899-43.479 76.46-82.215 123.918-113.476 46.977-30.962 97.245-52.564 155.322-52.539 12.47 0 16.749 4.745 19.104 15.573 12.28 56.060-3.412 105.114-37.726 149.701-26.382 34.327-64.012 51.386-103.324 66.982-31.959 12.675-65.335 24.859-93.137 44.141-55.146 38.242-78.623 95.371-84.896 160.238-0.625 6.441-4.733 16.087-9.54 17.684-4.975 1.706-14.322-3.027-18.983-7.653-25.518-25.387-42.531-56.265-55.122-89.436-35.346-93.063-33.69-187.714-10.285-282.774 17.134-69.577 47.192-132.725 102.892-181.023 33.376-28.883 71.367-48.814 117.838-45.617 38.302 2.654 71.463 18.622 102.844 39.393 5.839 3.871 14.61 5.216 21.914 4.866 30.446-1.44 61.082-7.303 91.167-5.19 29.604 2.091 58.894 11.078 87.898 18.637 15.426 4.033 23.548 19.302 20.568 32.686zM273.926 545.030c17.013-2.931 30.083 7.846 34.218 28.463 8.458 41.978 23.98 81.025 51.853 114.246 86.434 102.953 200.786 132.868 330.783 120.709 2.548-0.24 4.903-2.355 7.883-3.906-1.778-1.921-2.642-3.568-3.797-3.893-3.94-1.057-7.979-1.743-11.966-2.378-65.503-10.537-128.074-29.483-185.913-62.042-40.536-22.827-74.584-52.384-98.445-92.537-5.599-9.419-4.325-15.354 3.772-22.839 50.1-46.496 133.097-61.706 197.061-30.384 31.478 15.403 60.027 37.798 87.273 60.133 75.788 62.188 157.438 69.419 245.864 30.732 6.441-2.824 14.803-1.37 22.301-1.911 0.575 7.545 3.365 15.739 1.296 22.516-13.119 42.689-37.82 78.778-68.913 110.619-66.56 68.182-148.836 110.113-240.818 133.589-68.747 17.566-138.215 21.037-206.217-5.022-48.562-18.622-86.649-48.695-98.423-100.983-5.671-25.049-6.103-51.542-6.15-77.433 0-11.018-1.921-18.334-9.468-26.397-41.57-44.491-65.407-97.618-75.667-156.789-3.15-18.213 6.654-31.599 23.474-34.494zM975.909 396.040c-19.608 18.274-44.259 31.611-67.666 45.595-7.977 4.772-12.974 9.085-15.714 18.106-17.637 58.018-52.959 104.575-98.951 143.778-15.186 12.939-34.073 11.342-44.595-2.56-9.804-13.001-6.779-29.557 8.362-42.351 44.743-37.822 74.633-84.666 88.041-141.218 26.382-111.505-5.335-209.977-70.838-300.601-1.827-2.56-4.903-4.182-7.401-6.224l-3.17 1.575c1.536 5.333 2.642 10.799 4.612 15.968 22.54 59.134 36.909 119.88 37.437 183.364 0.432 47.362-7.305 92.764-31.91 134.537-6.199 10.512-12.401 11.715-23.355 8.266-69.974-21.985-123.175-89.809-125.288-164.022-0.672-24.328 2.114-49.306 7.451-73.095 22.682-101.353-5.673-183.015-92.559-243.941-5.792-4.059-8.841-11.93-13.169-18.035 6.345-4.289 12.063-10.799 19.030-12.505 39.361-9.611 79.008-7.893 118.319 0.18 94.865 19.415 173.967 67.439 242.932 132.448 48.97 46.209 87.37 99.731 103.563 165.716 13.939 56.861 11.102 111.935-35.129 155.019z" />
<glyph unicode="&#xe614;" d="M509.945 577.292c1.511 4.738 2.674 9.236 4.348 13.542 40.924 105.466 95.598 203.241 160.603 295.018 12.913 18.233 28.626 34.62 44.508 50.321 5.669 5.601 17.394 10.963 23.176 8.552 5.542-2.315 9.23-14.754 9.679-22.959 0.803-14.659-0.15-29.712-2.614-44.204-18.702-110.023-53.878-214.815-98.249-316.574-5.812-13.327-12.943-26.042-19.84-39.812-36.923 47.442-55.419 55.899-121.611 56.116zM640.54 423.365c1.049-0.72 2.291-1.235 3.095-2.158 3.683-4.235 7.42-8.458 10.825-12.931 67.955-89.329 123.654-186.111 167.816-289.703 8.114-19.026 13.399-39.489 18.077-59.75 1.618-7.028-0.134-18.665-4.787-22.324-4.534-3.562-15.877-1.821-22.233 1.524-13.183 6.934-25.868 15.474-37.313 25.13-81.204 68.531-150.142 148.746-212.992 234.609-11.077 15.138-20.782 31.321-31.59 47.73 65.966 14.011 78.957 23.414 109.102 77.874zM448.918 384.152c-4.403-1.103-7.575-2.074-10.814-2.652-7.57-1.355-15.151-2.747-22.774-3.706-95.766-12.057-191.821-13.796-287.821-4.92-31.207 2.891-62.419 9.68-92.659 18.222-21.382 6.045-22.443 20.741-3.226 32.604 17.033 10.509 35.357 19.587 54.147 26.27 96.402 34.247 195.881 54.675 297.23 65.94 16.205 1.8 32.568 2.074 50.506 3.167-22.724-49.781-16.498-93.708 15.41-134.925zM489.384 336.194c30.547-41.78 61.219-83.537 91.526-125.557 2.549-3.539 3.269-8.817 3.808-13.412 5.133-43.722 10.1-87.458 15.007-131.206 4.27-38.027 8.403-76.088 12.726-115.338-55.539 0-110.321 0-166.22 0 14.539 129.888 28.928 258.397 43.154 385.513zM532.496 542.528c43.515 0.527 78.824-34.643 79.152-78.811 0.343-45.031-34.144-80.742-78.343-81.139-42.836-0.371-78.391 34.547-79.098 77.683-0.762 46.268 32.987 81.728 78.288 82.267z" />
<glyph unicode="&#xe615;" d="M455.178 200.032l-50.991 519.684v240.284h212.343v-240.284l-50.291-519.684h-111.061zM412.57-64v196.276h196.276v-196.276h-196.276z" />
<glyph unicode="&#xe616;" d="M509.61 877.414c3.158-7.715 6.316-15.428 9.476-23.14 30.738-75.045 62.523-152.644 92.977-229.212 11.047-27.732 29.862-41.564 59.251-43.536 77.218-5.11 155.771-11.141 231.735-16.978 13.574-1.042 27.148-2.085 40.733-3.123l-24.398-20.701c-37.98-32.225-74.844-63.504-111.718-94.786-7.365-6.248-14.69-12.642-21.772-18.825-16.591-14.477-32.258-28.154-48.888-40.589-32.070-23.992-29.020-53.383-23.937-73.404 20.654-81.357 40.72-164.413 60.125-244.736 1.507-6.238 3.015-12.476 4.522-18.717-5.128 3.174-10.246 6.343-15.35 9.503-72.79 45.058-141.543 87.615-210.68 131.465-10.447 6.609-24.709 14.197-42.461 14.197-13.457 0.002-26.862-4.411-40.985-13.494-64.762-41.669-131.5-82.897-196.045-122.767-10.062-6.216-20.285-12.532-30.556-18.883 12.489 51.669 24.59 101.726 36.714 151.767 2.63 10.848 5.194 21.838 7.674 32.467 6.158 26.403 12.528 53.703 20.158 79.694 8.511 29.006 1.579 51.587-21.797 71.047-60.895 50.786-122.401 103.062-181.881 153.614-8.958 7.612-17.916 15.227-26.876 22.839 22.696 1.825 44.743 3.584 66.683 5.286 15.309 1.18 30.618 2.382 45.924 3.584 52.838 4.149 107.475 8.442 161.159 11.694 27.834 1.71 46.553 15.544 57.209 42.248 30.116 75.121 61.268 151.353 91.394 225.077 3.873 9.474 7.741 18.942 11.608 28.41zM509.305 955.904c-6.543-15.028-10.453-23.587-14.010-32.287-39.184-96.031-78.606-191.988-117.199-288.254-5.997-15.028-13.607-21.975-30.579-23.017-69.243-4.196-138.392-9.98-207.563-15.313-44.589-3.461-89.156-7.113-139.954-11.188 12.968-11.401 19.888-17.707 27.023-23.753 79.127-67.133 158.018-134.572 237.691-201.019 13.726-11.426 17.115-21.359 11.995-38.806-10.975-37.382-19.012-75.643-28.209-113.57-17.613-72.704-35.178-145.433-53.953-223.089 12.894 7.418 21.096 11.827 28.991 16.734 87.259 54.145 174.967 107.598 261.325 163.162 9.173 5.898 16.867 8.61 24.361 8.608 8.348 0 16.443-3.367 26.036-9.435 93.848-59.523 188.574-117.649 288.539-179.708-1.636 9.718-2.015 13.298-2.867 16.759-25.815 106.367-51.157 212.871-78.086 318.951-4.647 18.301-3.152 29.489 12.564 41.249 25.104 18.774 48.191 40.274 72.135 60.59 62.204 52.769 124.381 105.535 191.943 162.855-25.934 2.419-45.255 4.551-64.643 6.021-93.802 7.16-187.625 14.578-281.498 20.789-17.662 1.186-26.149 7.705-32.737 24.25-38.687 97.262-78.631 194.028-118.239 290.933-3.277 7.985-7.188 15.759-13.066 28.537v0z" />
<glyph unicode="&#xe617;" d="M823.8-41.656c-99.965 62.058-194.689 120.185-288.539 179.708-18.207 11.52-31.007 13.298-50.397 0.827-86.358-55.564-174.066-109.017-261.325-163.162-7.893-4.907-16.095-9.316-28.991-16.734 18.774 77.656 36.34 150.385 53.953 223.089 9.198 37.929 17.234 76.188 28.209 113.57 5.12 17.449 1.731 27.38-11.995 38.806-79.673 66.445-158.564 133.886-237.691 201.019-7.135 6.046-14.055 12.351-27.023 23.755 50.801 4.078 95.365 7.727 139.954 11.188 69.171 5.333 138.32 11.117 207.563 15.313 16.974 1.042 24.582 7.989 30.579 23.017 38.593 96.266 78.014 192.223 117.199 288.254 3.555 8.7 7.467 17.256 14.010 32.287 5.878-12.777 9.789-20.552 13.062-28.541 39.61-96.905 79.555-193.671 118.239-290.933 6.59-16.546 15.075-23.065 32.737-24.25 93.872-6.212 187.695-13.629 281.498-20.789 19.39-1.47 38.709-3.602 64.643-6.021-67.559-57.319-129.739-110.086-191.943-162.855-23.941-20.316-47.030-41.816-72.135-60.59-15.716-11.758-17.209-22.948-12.564-41.249 26.929-106.080 52.269-212.586 78.086-318.951 0.856-3.459 1.235-7.039 2.871-16.757z" />
<glyph unicode="&#xe618;" d="M1001.472 712.192v-522.24h-887.233c-5.661 0-25.504 5.276-44.982 16.45-28.686 16.458-42.633 38.121-42.633 67.035v389.519c6.054 11.848 29.295 49.236 85.385 49.236h889.463zM1026.048 736.768c0 0-829.684 0-914.039 0-84.347 0-109.961-68.495-109.961-68.495s0-303.305 0-394.838c0-91.523 109.961-108.059 109.961-108.059h914.039v571.392zM333.976 573.63h361.804c4.164 0 7.541 13.228 7.541 18.276s-3.375 9.138-7.541 9.138h-361.804c-4.164 0-7.539-4.090-7.539-9.138s3.375-18.276 7.539-18.276zM695.777 509.673h-361.802c-4.164 0-7.539-4.094-7.539-9.134 0-5.044 3.375-18.274 7.539-18.274h361.804c4.164 0 7.541 13.23 7.541 18.274-0.002 5.040-3.377 9.134-7.543 9.134zM695.777 418.308h-361.802c-4.164 0-7.539-4.088-7.539-9.136 0-5.052 3.375-18.268 7.539-18.268h361.804c4.164 0 7.541 13.216 7.541 18.268-0.002 5.048-3.377 9.136-7.543 9.136zM695.777 326.949h-361.802c-4.164 0-7.539-4.104-7.539-9.148 0-5.048 3.375-18.268 7.539-18.268h361.804c4.164 0 7.541 13.22 7.541 18.268-0.002 5.044-3.377 9.148-7.543 9.148z" />
<glyph unicode="&#xe619;" d="M93.577 736.768c-84.347 0-91.529-86.145-91.529-86.145s0-303.303 0-394.836c0-91.525 91.529-90.411 91.529-90.411h932.471v571.392c0 0-848.116 0-932.471 0zM695.777 300.544h-361.802c-4.164 0-7.539 12.825-7.539 17.873 0 5.044 3.375 8.751 7.539 8.751h361.804c4.164 0 7.541-3.709 7.541-8.751-0.002-5.048-3.377-17.873-7.543-17.873zM695.777 392.704h-361.802c-4.164 0-7.539 12.829-7.539 17.877s3.375 8.747 7.539 8.747h361.804c4.164 0 7.541-3.701 7.541-8.747s-3.377-17.877-7.543-17.877zM695.777 482.816h-361.802c-4.164 0-7.539 13.863-7.539 18.905 0 5.040 3.375 9.767 7.539 9.767h361.804c4.164 0 7.541-4.727 7.541-9.767-0.002-5.042-3.377-18.905-7.543-18.905zM695.777 574.976h-361.802c-4.164 0-7.539 12.833-7.539 17.879 0 5.050 3.375 8.745 7.539 8.745h361.804c4.164 0 7.541-3.695 7.541-8.745-0.002-5.046-3.377-17.879-7.543-17.879z" />
<glyph unicode="&#xe61a;" d="M915.517 712.192c56.093 0 79.811-37.388 85.955-49.236v-389.519c0-28.541-13.877-49.998-41.841-66.408-19.802-11.622-40.593-17.076-46.352-17.076h-886.655v522.24h888.832zM915.517 736.768c-84.355 0-913.469 0-913.469 0v-571.392h913.469c0 0 110.531 16.536 110.531 108.061 0 91.531 0 394.838 0 394.838s-26.182 68.493-110.531 68.493v0zM513.479 290.546c0 0-106.494 154.175-106.494 212.99 0 58.817 47.677 106.496 106.494 106.496s106.498-47.679 106.498-106.496c0-58.814-106.498-212.99-106.498-212.99zM513.479 578.087c-41.173 0-74.545-33.38-74.545-74.549s33.374-74.545 74.545-74.545c41.175 0 74.549 33.378 74.549 74.545 0 41.169-33.374 74.549-74.549 74.549z" />
<glyph unicode="&#xe61b;" d="M588.026 503.538c0-41.171-33.376-74.547-74.547-74.547s-74.547 33.376-74.547 74.547c0 41.171 33.376 74.547 74.547 74.547s74.547-33.376 74.547-74.547zM915.517 735.986c-84.355 0-914.039 0-914.039 0v-571.392h914.039c0 0 109.961 17.32 109.961 108.843 0 91.531 0 394.838 0 394.838s-25.612 67.711-109.961 67.711zM513.479 290.546c0 0-106.494 154.175-106.494 212.99 0 58.817 47.677 106.496 106.494 106.496s106.498-47.679 106.498-106.496c0-58.814-106.498-212.99-106.498-212.99z" />
<glyph unicode="&#xe61c;" d="M485.22 713.294h53.002v238.514h-53.002v-238.514zM485.22-55.249h53.002v238.512h-53.002v-238.512zM8.192 421.777h238.514v53.002h-238.514v-53.002zM776.737 474.782v-53.002h238.514v53.002h-238.514zM873.482 810.596c-96.705 96.705-225.282 149.963-362.039 149.963-136.759 0-265.335-53.256-362.037-149.963-96.705-96.705-149.963-225.278-149.963-362.037 0-136.757 53.256-265.337 149.963-362.039 96.705-96.702 225.278-149.961 362.037-149.961 136.757 0 265.337 53.258 362.039 149.961 96.702 96.705 149.961 225.282 149.961 362.039 0 136.759-53.258 265.333-149.961 362.037zM511.443-10.437c-253.090 0-458.994 205.906-458.994 458.994 0 253.090 205.904 458.994 458.994 458.994 253.088 0 458.994-205.904 458.994-458.994 0-253.088-205.906-458.994-458.994-458.994z" />
<glyph unicode="&#xe61d;" d="M420.385 309.264c0 26.025-0.025 52.050 0.004 78.074 0.108 90.975 0.032 181.953 0.457 272.929 0.165 34.828 18.519 60.717 48.814 71.057 31.825 10.868 66.197 1.534 86.718-23.494 12.43-15.16 15.084-33.217 15.152-51.869 0.176-49.214 0.081-98.427 0.095-147.642 0-3.425 0-6.851 0-10.694 49.576 9.197 86.78-3.595 106.143-53.417 17.054 5.774 34.391 5.733 51.645-0.29 19.304-6.742 34.469-18.239 42.433-37.481 2.638-6.38 5.698-7.069 12.134-5.492 40.675 9.956 80.829-12.309 90.933-51.185 3.152-12.126 3.522-25.264 3.342-37.911-0.977-68.652-1.648-137.33-4.305-205.923-1.050-27.019-4.569-54.46-11.22-80.631-10.431-41.064-41.288-62.693-83.997-62.761-105.080-0.163-210.166-0.052-315.251-0.052-20.764 0-35.72 9.137-45.432 27.619-59.281 112.787-118.009 225.879-178.549 337.995-18.314 33.915 1.339 67.312 37.125 81.326 34.992 13.703 76.038 0.858 96.567-30.7 11.564-17.782 21.384-36.681 32.254-54.923 3.225-5.409 7.356-10.288 11.071-15.404 1.292 0.29 2.58 0.577 3.87 0.871zM467.661 483.74c-0.043 0-0.087 0-0.129 0 0-26.205 0.14-52.407-0.033-78.613-0.227-34.34-0.067-68.703-1.311-103.011-0.73-20.168-13.431-34.43-32.398-40.163-19.335-5.846-40.21-0.35-51.998 14.863-8.652 11.167-16.516 23.002-23.968 35.010-8.207 13.229-15.026 27.322-23.386 40.439-10.048 15.773-30.673 19.881-46.835 10.612-7.195-4.127-9.655-8.713-4.407-16.153 2.838-4.023 4.885-8.613 7.208-12.99 55.295-104.117 110.66-208.193 165.706-312.44 4.324-8.189 9.090-11.388 18.769-11.345 99.773 0.436 199.548 0.284 299.318 0.261 28.516-0.012 40.432 9.369 46.64 37.262 1.384 6.197 2.527 12.529 2.888 18.85 2.756 48.761 6.251 97.51 7.603 146.316 1.099 39.604-0.167 79.29-0.978 118.926-0.311 15.063-12.369 25.375-27.431 25.206-15.098-0.163-24.258-9.63-24.835-25.733-0.189-5.311-0.226-10.621-0.333-15.93-0.048-2.477 0.031-4.968-0.166-7.433-1.135-14.331-10.73-24.096-23.482-23.969-12.705 0.116-22.835 10.093-23.182 24.367-0.527 21.945-0.067 43.906-0.244 65.859-0.138 17.504-9.686 27.344-26.551 27.815-14.34 0.401-25.763-11.488-26.19-27.63-0.24-9.197 0.334-18.426-0.064-27.615-0.229-5.216-0.816-10.738-2.771-15.494-3.787-9.224-15.354-15.053-24.406-13.372-11.328 2.102-19.936 12.596-20.033 25.446-0.217 27.62-0.79 55.266 0.147 82.855 0.69 20.228-16.070 28.393-30.105 28.374-16.985-0.020-30.078-10.821-29.213-27.918 0.824-16.243 0.467-32.583-0.144-48.849-0.658-17.503-14.351-28.114-30.016-24.089-10.729 2.766-17.143 13.174-17.156 28.601-0.051 52.761 0.022 105.522 0.046 158.283 0.017 40.012 0.111 80.024-0.006 120.038-0.040 14.877-5.075 22.111-16.481 26.747-15.328 6.236-40.681-3.344-40.345-27.049 0.827-58.769 0.273-117.556 0.273-176.334zM608.989 541.227c0 18.028-0.166 34.636 0.139 51.237 0.058 3.36 1.55 6.828 2.941 10.008 21.273 48.692 15.778 94.737-17.733 135.38-33.538 40.676-78.285 55.574-129.815 43.38-52.504-12.425-84.596-46.821-96.897-99.039-6.278-26.651-3.153-52.991 8.386-77.689 4.842-10.358 7.012-20.367 6.531-31.535-0.488-11.287-0.108-22.609-0.108-34.237-34.655 24.824-62.555 88.652-49.644 149.436 15.701 73.924 76.757 126.786 151.584 131.653 73.958 4.813 140.352-39.97 166.489-112.298 20.392-56.415 0.957-135.731-41.873-166.295z" />
<glyph unicode="&#xe61e;" d="M420.385 309.264c0 26.025-0.025 52.050 0.004 78.074 0.108 90.975 0.032 181.953 0.457 272.929 0.165 34.828 18.519 60.717 48.814 71.057 31.825 10.868 66.197 1.534 86.718-23.494 12.43-15.16 15.084-33.217 15.152-51.869 0.176-49.214 0.081-98.427 0.095-147.642 0-3.425 0-6.851 0-10.694 49.576 9.197 86.78-3.595 106.143-53.417 17.054 5.774 34.391 5.733 51.645-0.29 19.304-6.742 34.469-18.239 42.433-37.481 2.638-6.38 5.698-7.069 12.134-5.492 40.675 9.956 80.829-12.309 90.933-51.185 3.152-12.126 3.522-25.264 3.342-37.911-0.977-68.652-1.648-137.33-4.305-205.923-1.050-27.019-4.569-54.46-11.22-80.631-10.431-41.064-41.288-62.693-83.997-62.761-105.080-0.163-210.166-0.052-315.251-0.052-20.764 0-35.72 9.137-45.432 27.619-59.281 112.787-118.009 225.879-178.549 337.995-18.314 33.915 1.339 67.312 37.125 81.326 34.992 13.703 76.038 0.858 96.567-30.7 11.564-17.782 21.384-36.681 32.254-54.923 3.225-5.409 7.356-10.288 11.071-15.404 1.292 0.29 2.58 0.577 3.87 0.871zM467.661 483.74c-0.043 0-0.087 0-0.129 0 0-26.205 0.14-52.407-0.033-78.613-0.227-34.34-0.067-68.703-1.311-103.011-0.73-20.168-13.431-34.43-32.398-40.163-19.335-5.846-40.21-0.35-51.998 14.863-8.652 11.167-16.516 23.002-23.968 35.010-8.207 13.229-15.026 27.322-23.386 40.439-10.048 15.773-30.673 19.881-46.835 10.612-7.195-4.127-9.655-8.713-4.407-16.153 2.838-4.023 4.885-8.613 7.208-12.99 55.295-104.117 110.66-208.193 165.706-312.44 4.324-8.189 9.090-11.388 18.769-11.345 99.773 0.436 199.548 0.284 299.318 0.261 28.516-0.012 40.432 9.369 46.64 37.262 1.384 6.197 2.527 12.529 2.888 18.85 2.756 48.761 6.251 97.51 7.603 146.316 1.099 39.604-0.167 79.29-0.978 118.926-0.311 15.063-12.369 25.375-27.431 25.206-15.098-0.163-24.258-9.63-24.835-25.733-0.189-5.311-0.226-10.621-0.333-15.93-0.048-2.477 0.031-4.968-0.166-7.433-1.135-14.331-10.73-24.096-23.482-23.969-12.705 0.116-22.835 10.093-23.182 24.367-0.527 21.945-0.067 43.906-0.244 65.859-0.138 17.504-9.686 27.344-26.551 27.815-14.34 0.401-25.763-11.488-26.19-27.63-0.24-9.197 0.334-18.426-0.064-27.615-0.229-5.216-0.816-10.738-2.771-15.494-3.787-9.224-15.354-15.053-24.406-13.372-11.328 2.102-19.936 12.596-20.033 25.446-0.217 27.62-0.79 55.266 0.147 82.855 0.69 20.228-16.070 28.393-30.105 28.374-16.985-0.020-30.078-10.821-29.213-27.918 0.824-16.243 0.467-32.583-0.144-48.849-0.658-17.503-14.351-28.114-30.016-24.089-10.729 2.766-17.143 13.174-17.156 28.601-0.051 52.761 0.022 105.522 0.046 158.283 0.017 40.012 0.111 80.024-0.006 120.038-0.040 14.877-5.075 22.111-16.481 26.747-15.328 6.236-40.681-3.344-40.345-27.049 0.827-58.769 0.273-117.556 0.273-176.334zM608.989 541.227c0 18.028-0.166 34.636 0.139 51.237 0.058 3.36 1.55 6.828 2.941 10.008 21.273 48.692 15.778 94.737-17.733 135.38-33.538 40.676-78.285 55.574-129.815 43.38-52.504-12.425-84.596-46.821-96.897-99.039-6.278-26.651-3.153-52.991 8.386-77.689 4.842-10.358 7.012-20.367 6.531-31.535-0.488-11.287-0.108-22.609-0.108-34.237-34.655 24.824-62.555 88.652-49.644 149.436 15.701 73.924 76.757 126.786 151.584 131.653 73.958 4.813 140.352-39.97 166.489-112.298 20.392-56.415 0.957-135.731-41.873-166.295zM693.797 496.958c-6.283 28.683 20.754 46.062 29.499 67.424 68.509 167.37-62.343 354.067-248.626 341.334-117.405-8.025-226.48-100.278-227.556-244.412-0.647-86.566 37.973-150.253 84.28-189.63 18.357-15.609 59.92-21.701 58.996-58.996-21.404-11.412-42.928 13.561-58.996 25.282-51.253 37.388-104.815 105.287-113.778 185.418-18.916 169.107 110.431 325.466 294.98 311.836 177.135-13.083 313.896-199.196 231.77-387.688-8.7-19.966-21.457-69.514-50.569-50.568zM382.817 476.601c-24.432-5.99-45.83 23.998-62.101 44.358-111.54 139.571-11.914 377.555 195.175 359.299 110.191-9.715 208.928-102.851 199.61-239.532-0.91-13.349-35.763-154.237-70.973-119.767-13.008 12.737 36.049 79.296 39.923 110.894 15.5 126.398-82.852 230.775-212.919 217.353-133.614-13.787-207.397-160.961-146.38-279.454 19.23-37.346 50.567-41.319 57.664-93.151z" />
<glyph unicode="&#xe61f;" d="M934.957 715.874c-52.165 30.253-104.335 60.51-156.498 90.763-67.844 39.348-135.69 78.696-203.532 118.045-15.307 8.876-30.614 17.75-45.914 26.63-20.863 12.095-37.65 0.629-55.157-9.359-123.437-70.451-246.876-140.902-370.315-211.352-7.913-4.52-15.831-9.040-23.749-13.556-11.080-6.324-18.018-18.69-18.006-31.392 0.172-157.932 0.344-315.863 0.516-473.799 0.004-4.927 0.854-9.308 2.296-13.201 0.248-0.698 0.508-1.393 0.809-2.085 0.055-0.123 0.117-0.238 0.174-0.362 2.73-6.005 7.475-11.477 14.725-15.682 111.827-64.858 223.658-129.743 335.485-194.603 29.954-17.371 81.601-62.435 117.256-42.082 51.593 29.442 103.182 58.88 154.767 88.328 84.232 48.071 168.46 96.145 252.688 144.222 11.082 6.326 18.022 18.684 18.004 31.386-0.139 129.593-0.283 259.189-0.424 388.78-0.035 34.992 12.524 98.642-23.126 119.319zM510.667 14.991c-125.227 71.299-250.45 145.17-375.675 217.919-0.158 143.593-0.315 287.189-0.471 430.78 125.022 71.322 250.044 142.299 375.069 213.301 125.239-71.254 250.479-144.505 375.722-217.209 0.158-143.679 0.311-287.222 0.467-430.897-125.039-71.381-250.075-142.838-375.112-213.895zM336.163 492.925l171.42 138.646 176.554-138.646v-231.074h-106.965l-0.854 116.75h-125.841l0.426-116.75h-114.739v231.074z" />
<glyph unicode="&#xe620;" d="M23.828 779.773h976.924c11.243 0 20.358 35.719 20.358 49.335 0 13.628-9.116 24.674-20.358 24.674h-976.924c-11.244 0-20.358-11.045-20.358-24.674 0-13.616 9.114-49.335 20.358-49.335zM1000.752 607.081h-976.924c-11.244 0-20.358-11.046-20.358-24.675 0-13.615 9.114-49.334 20.358-49.334h976.924c11.243 0 20.358 35.718 20.358 49.334-0.001 13.629-9.116 24.675-20.358 24.675zM1000.752 360.379h-976.924c-11.244 0-20.358-11.045-20.358-24.674 0-13.614 9.114-49.334 20.358-49.334h976.924c11.243 0 20.358 35.72 20.358 49.334-0.001 13.629-9.116 24.674-20.358 24.674zM1000.752 113.678h-976.924c-11.244 0-20.358-11.045-20.358-24.674s9.114-49.336 20.358-49.336h976.924c11.243 0 20.358 35.706 20.358 49.336s-9.116 24.674-20.358 24.674z" />
<glyph unicode="&#xe621;" d="M732.518 314.743c48.341-48.288 96.258-96.092 144.114-143.972 47.841-47.868 95.646-95.787 144.499-144.714-31.351-29.596-61.805-58.352-92.4-87.245-92.422 93.112-188.041 189.448-283.994 286.13-111.78-77.029-230.924-99.111-358.928-60.5-94.763 28.588-168.481 86.62-222.192 170.105-107.28 166.758-76.186 389.267 72.952 523.166 147.823 132.721 371.139 136.737 525.199 9.411 158.099-130.677 199.637-369.4 70.75-552.38zM724.683 552.954c0.51 176.716-142.119 321.071-317.876 321.749-176.599 0.666-320.279-142.453-321.315-320.061-1.022-176.935 142.336-321.759 318.898-322.134 177.035-0.369 319.793 142.453 320.293 320.446z" />
<glyph unicode="&#xe622;" d="M346.053 566.374c52.711-62.636 107.829-123.306 163.088-186.132 4.727 5.052 7.090 7.414 9.29 9.951 35.271 41.036 71.477 81.361 105.527 123.365 27.75 34.232 54.827 69.308 78.793 106.16 24.859 38.244 34.822 81.492 28.893 127.244-14.916 115.063-113.148 196.647-231.346 192.397-129.389-4.645-228.596-123.507-209.383-249.766 7.074-46.324 25.369-87.847 55.138-123.22zM511.912 824.504c59.64-0.010 109.257-49.281 109.070-108.339-0.182-58.956-50.141-108.237-109.56-108.063-60.801 0.182-110.129 48.871-109.988 108.562 0.143 59.924 49.226 107.85 110.477 107.839zM1005.373 453.329c-67.447 33.804-134.885 67.629-202.334 101.431-25.958 12.99-51.937 25.889-78.344 39.041-6.826-10.473-13.203-20.232-20.15-30.89 44.583-22.309 88.369-44.214 132.135-66.159 43.524-21.821 87.030-43.684 132.053-66.304-64.545-49.326-126.98-97.047-189.94-145.175-59.009 51.653-117.203 102.562-175.841 153.879-4.708-5.493-8.313-9.697-12.429-14.5 56.584-49.594 112.23-98.372 169.22-148.335-4.768-2.22-7.436-3.635-10.205-4.717-78.103-30.736-156.303-61.2-234.201-92.406-10.207-4.084-15.221-2.333-21.844 5.831-97.681 120.4-195.748 240.513-293.695 360.731-1.526 1.876-2.548 4.176-5.458 9.046h118.954c-7.049 11.635-12.941 20.419-17.83 29.706-3.078 5.829-6.785 7.967-13.511 7.795-37.655-0.958-75.327-1.253-112.964-2.351-5.765-0.172-12.225-2.232-16.992-5.401-46.846-31.103-93.442-62.573-140.042-94.054-13.754-9.302-15.385-18.246-6.193-31.574 111.659-161.948 223.338-323.893 335.061-485.8 12.612-18.287 24.146-18.907 38.142-2.005 44.747 53.973 89.289 108.126 134.277 161.896 4.624 5.534 11.266 10.422 17.992 13.093 83.335 33.13 166.875 65.733 250.294 98.638 5.992 2.361 11.903 5.462 16.996 9.335 70.257 53.475 140.39 107.125 210.5 160.795 18.926 14.479 17.598 27.798-3.65 38.453zM361.66 8.157c-106.076 153.799-211.378 306.442-317.149 459.803 41.912 28.262 82.786 55.808 125.129 84.353 106.177-130.281 212.175-260.342 318.677-391.010-42.138-50.946-83.827-101.368-126.657-153.145z" />
<glyph unicode="&#xe623;" d="M508.766 959.015c-281.453 0-509.612-228.162-509.612-509.612s228.159-509.61 509.612-509.61c281.45 0 509.61 228.159 509.61 509.61s-228.159 509.612-509.61 509.612zM238.248 178.702l52.836 138.383 86.266-86.491-139.102-51.892zM476.393 294.060c-13.482-13.513-59.736-55.267-73.202-41.757l-90.446 90.685c-13.482 13.515 28.162 59.881 41.644 73.394l227.033 227.645 122.534-121.778-227.564-228.19zM769.186 587.637l-40.825-40.923-121.989 122.325 40.813 40.931c13.478 13.513 35.318 13.513 48.804 0l73.198-73.4c13.466-13.517 13.466-35.418 0-48.933z" />
<glyph unicode="&#xe624;" d="M510.433 960c-281.905 0-510.433-228.528-510.433-510.433s228.528-510.435 510.431-510.435c281.907 0 510.435 228.53 510.435 510.435 0.002 281.905-228.526 510.433-510.433 510.433zM458.609 472.738c0-2.669-0.225-4.727-3.553-5.644-39.455-10.975-78.223-22.084-119.183-33.382 0 12.171 0 23.769 0 35.363 0 12.065-0.088 12.093 11.129 15.987 34.662 11.985 69.482 23.939 104.145 35.897 2.169 0.754 3.51 1.333 7.606 2.263 0-4.739 0-8.591 0-12.456 0-12.671-0.197-25.342-0.143-38.027zM458.752 226.816c-40.96 0-81.92 0-122.88 0 0 16.384 0 31.142 0 47.301 40.96 2.652 81.92 5.306 122.88 8.012 0-19.028 0-36.88 0-55.312zM458.752 308.118c-40.96-3.84-81.92-7.662-122.88-11.53 0 15.878 0 31.189 0 47.401 40.96 6.466 81.92 12.929 122.88 19.472 0-18.663 0-36.721 0-55.343zM454.33 387.566c-38.351-7.070-76.661-14.301-114.999-21.463-0.928-0.176-1.925-0.016-3.582-0.016 0 14.883-0.121 29.614 0.215 44.343 0.027 1.237 3.002 3.056 4.874 3.543 33.786 8.659 67.77 17.181 101.583 25.717 5.063 1.28 10.187 2.507 16.331 3.987 0-4.538 0-8.202 0-11.85 0-12.847-0.252-25.709-0.158-38.554 0.029-3.070-0.602-5.036-4.264-5.708zM731.136 224.768c-38.912 0-79.872 0-118.784 0 0 157.696 0 315.124 0 473.375-2.048-1.024-4.43-1.669-6.248-2.517-51.505-24.076-102.947-48.234-154.522-72.163-4.565-2.114-6.334-4.565-6.16-9.654 0.418-11.823 0.143-23.673 0.143-36.426 8.229 2.773 15.6 5.21 22.925 7.756 13.156 4.551 26.354 9.007 39.418 13.828 3.944 1.466 6.732 1.212 10.5-1.116 17.316-10.734 34.906-21.076 52.601-31.187 4.686-2.666 6.453-5.71 6.441-11.028-0.162-96.539 0.086-193.073 0.086-289.624 0-2.693 0-6.425 0-8.473 8.192 0 16.384 0 24.576 0 0-10.24 0-20.48 0-30.72-38.912 0-77.824 0-118.784 0 0 108.544 0 219.351 0 330.433-2.048-0.901-4.34-1.454-6.103-2.060-51.696-17.951-103.279-35.967-155.027-53.729-4.645-1.587-5.315-3.889-5.3-8.442 0.135-87.179 0.545-174.359 0.545-261.534 0-2.669 0-5.333 0-8.714-14.336 0-26.194-0.082-38.717 0.133-1.036 0.014-3.117 2.048-3.144 3.195-0.244 8.913-0.233 17.854-0.233 27.185 3.328 0.336 6.105 0.635 9.499 0.969 0.094 2.251 0.246 4.309 0.246 6.382 0.012 84.259 0.068 168.514-0.133 252.756-0.027 6.019 1.61 8.671 7.535 10.678 38.822 13.156 77.453 26.878 116.222 40.155 4.309 1.466 5.734 3.447 5.695 7.877-0.215 21.062-0.029 42.121-0.164 63.183-0.027 3.5 0.78 5.507 4.28 7.137 73.226 34.122 146.373 68.379 219.546 102.611 1.565 0.725 3.178 1.372 3.932 1.71 2.763-2.37 4.78-4.647 7.272-6.142 17.48-10.49 34.996-20.926 52.65-31.119 3.584-2.058 4.659-4.442 4.649-8.389-0.096-134.375-0.080-268.751-0.080-403.126 0-12.282 0.133-24.574-0.070-36.856-0.066-4.053 1.651-5.548 5.814-5.333 6.019 0.297 10.709 0.066 18.901 0.066-0.006-10.516-0.006-20.834-0.006-31.074z" />
<glyph unicode="&#xe625;" d="M512.102-63.304c-282.518 0-512.365 229.847-512.365 512.362 0 282.518 229.847 512.365 512.365 512.365 282.524 0 512.369-229.847 512.369-512.365 0-282.515-229.847-512.362-512.369-512.362zM512.102 881.682c-238.547 0-432.624-194.077-432.624-432.624 0-238.551 194.077-432.622 432.624-432.622 238.553 0 432.63 194.071 432.63 432.622-0.002 238.547-194.077 432.624-432.63 432.624zM714.054 456.051l-255.021 254.767-72.501-72.501 182.395-182.393-182.395-182.397 72.501-72.497 255.021 254.765-0.129 0.129z" />
<glyph unicode="&#xe626;" d="M605.196 298.283c-10.981 16.798-20.767 18.366-38.040 7.201-20.275-13.15-41.015-25.688-60.656-39.768-12.831-9.206-25.27-9.107-37.257-1.298-15.096 9.845-30.339 20.13-43.28 32.567-45.988 44.247-81.187 96.553-106.592 154.831-10.91 25.027-17.373 52.181-23.716 78.897-3.869 16.185 2.019 29.727 18.256 38.861 19.909 11.215 38.455 24.781 57.69 37.196 19.259 12.44 21.242 21.205 8.901 40.305-52.036 80.513-104.081 161.026-156.092 241.588-10.725 16.601-20.765 19.173-37.808 8.278-26.175-16.773-52.328-33.595-77.978-51.153-58.927-40.405-89.244-95.842-88.115-168.323 2.4-19.247 3.881-38.691 7.494-57.69 3.613-19.028 8.497-37.906 14.299-56.394 23.19-74.22 58.438-142.93 97.714-209.658 57.473-97.704 120.111-191.857 196.082-276.41 42.902-47.725 89.364-91.531 147.62-120.547 60.494-30.145 120.953-33.155 180.283 2.888 32.469 19.739 64.293 40.501 96.135 61.194 12.28 7.981 14.092 18.487 5.841 31.195-53.492 82.153-107.045 164.258-160.78 246.241zM1000.794 486.365c-3.455 99.76-32.592 191.193-90.235 272.808-74.271 105.075-174.776 171.409-300.272 199.619-28.635 6.441-52.513-13.615-51.077-42.351 1.004-19.749 14.348-32.334 39.068-38.406 132.241-32.469 227.371-110.828 284.598-234.119 37.736-81.297 45.253-166.707 28.357-254.566-4.444-23.14 9.257-43.096 31.173-47.602 22.417-4.604 44.003 8.765 47.739 32.69 5.816 36.999 9.353 74.367 13.834 111.538l-3.185 0.389zM564.4 751.854c-19.81 3.746-39.621-7.494-46.586-26.446-8.901-24.095 5.671-47.161 34.525-54.385 63.521-15.942 109.249-53.774 137.187-112.787 19.124-40.403 21.756-82.84 14.41-126.646-3.99-23.898 10.482-43.096 32.545-46.623 22.395-3.6 42.203 9.648 46.672 32.934 3.539 18.586 4.958 37.589 6.99 53.75-1.296 14.080-2.3 25.246-3.402 36.411-11.51 117.488-106.676 221.827-222.341 243.792z" />
<glyph unicode="&#xe627;" d="M1032.192 58.706c0-72.294-58.604-130.898-130.898-130.898h-770.396c-72.292 0-130.898 58.604-130.898 130.898v770.396c0 72.292 58.606 130.898 130.898 130.898h770.396c72.294 0 130.898-58.606 130.898-130.898v-770.396zM956.416 829.284c0 30.341-24.596 54.94-54.94 54.94h-770.763c-30.341 0-54.94-24.596-54.94-54.94v-770.761c0-30.343 24.596-54.94 54.94-54.94h770.761c30.343 0 54.94 24.596 54.94 54.94v770.761zM425.157 375.937v-177.592h-98.218v489.736h195.088c56.277 0 100.569-14.354 132.862-43.053 32.289-28.709 48.435-66.49 48.435-113.355 0-46.868-16.148-84.539-48.435-113.019-32.293-28.477-76.587-42.717-132.862-42.717h-96.87zM425.157 451.619h96.87c27.353 0 48.099 7.455 62.226 22.368 14.125 14.911 21.193 33.917 21.193 57.014 0 23.544-7.016 42.996-21.027 58.36-14.014 15.356-34.81 23.038-62.392 23.038h-96.87v-160.78z" />
<glyph unicode="&#xe628;" d="M1019.621 811.825c0 36.555-30.114 66.105-66.765 66.128-147.567 0.063-295.141 0.020-442.718 0.020v0.106c-145.932 0-291.852-0.020-437.752 0-44.077 0-72.366-28.033-72.366-71.995-0.020-239.19-0.020-478.38-0.020-717.605 0-34.198 35.228-70.838 68.821-70.859 294.74-0.119 589.5-0.137 884.249-0.023 36.332 0.023 66.552 30.358 66.574 66.648 0.147 242.514 0.147 485.057-0.023 727.579zM922.255 112.556h-825.209v670.323h825.209v-670.323zM224.303 208.521c147.925-0.17 295.875-0.17 443.8 0 27.525 0.023 40.501 19.8 28.83 44.448-36.829 77.832-74.011 155.525-111.456 233.081-9.974 20.711-30.233 23.99-46.825 7.959-10.134-9.763-19.409-20.361-30.401-32.012-3.152 4.35-4.723 6.197-5.931 8.235-25.891 43.856-51.855 87.71-77.523 131.693-10.686 18.366-23.876 24.82-44.46 21.084-15.778-2.875-21.881-15.26-27.642-27.728-52.376-114.024-104.677-228.051-156.807-342.157-11.418-24.992 1.063-44.579 28.416-44.601zM733.426 495.876c52.756 0.561 95.158 43.706 94.859 96.422-0.307 52.83-43.080 95.201-96.082 95.138-52.023-0.043-95.635-44.216-95.136-96.379 0.541-52.505 44.311-95.744 96.358-95.181z" />
<glyph unicode="&#xe629;" d="M785.365 455.169c76.564-0.135 136.036 58.86 136.022 134.927-0.013 72.565-60.036 132.085-133.32 132.206-74.199 0.127-133.536-58.773-133.846-132.844-0.309-73.432 59.001-134.167 131.144-134.288zM992.053 173.302c-15.561 3.52-25.76 13.363-35.112 24.63-10.924 13.195-21.028 27.075-30.878 39.84-20.034-15.036-39.263-29.871-58.921-44.107-33.243-24.066-66.7-22.89-99.568 0.759-19 13.666-37.516 28.023-57.121 42.736-5.415-6.612-11.354-14.237-17.683-21.526-40.163-46.331-78.955-52.068-129.694-18.343-11.704 7.78-22.010 17.757-32.477 27.264-4.81 4.36-8.452 10.010-13.41 16.036-6.060-6.832-9.675-11.878-14.216-15.875-14.58-12.806-28.728-26.283-44.45-37.537-20.867-14.948-44.073-15.922-66.525-3.5-15.010 8.311-29.212 18.301-43.012 28.56-9.406 6.98-17.522 15.714-25.194 22.743-21.19-15.427-41.104-30.113-61.191-44.517-25.544-18.321-51.383-19.128-77.679-1.249-23.326 15.855-46.921 31.301-71.068 47.372-7.081-9.446-14.095-20.209-22.52-29.702-13.276-14.942-27.25-29.186-48.83-31.947-14.888-1.901-24.227-13.034-22.789-25.879 1.478-13.336 12.672-23.79 27.21-20.901 15.681 3.117 31.362 8.882 45.497 16.392 11.824 6.276 21.419 16.736 33.459 26.525 64.524-55.246 130.11-58.161 194.446 2.674 65.989-56.193 131.547-64.84 196.501-2.896 78.163-58.84 134.665-56.401 201.057 0.423 64.941-55.857 131.655-58.403 197.186-2.014 13.948-11.469 25.611-23.36 39.438-31.618 9.661-5.771 22.238-8.767 33.593-9.002 11.944-0.256 18.73 9.6 19.711 21.324 0.967 11.423-4.904 20.876-15.761 23.334zM139.761 569.893c75.153-5.052 150.279-10.467 225.432-15.264 9.433-0.605 11.824-4.387 11.904-12.974 0.189-23.487 0.471-47.009 1.881-70.449 0.618-10.158-2.298-15.755-11.193-21.15-75.368-45.733-150.441-91.949-225.418-138.319-10.293-6.369-19.551-14.419-32.611-24.167 22.198-15.89 40.889-28.453 58.692-42.179 37.705-29.077 73.81-26.154 109.578 3.453 14.229 11.785 29.132 22.756 43.28 33.754 15.748-12.906 30.354-26.592 46.627-37.858 43.899-30.387 71.417-28.56 112.48 5.899 5.765 4.837 11.207 10.091 16.406 15.526 6.087 6.368 11.757 13.141 19.282 21.627 4.931-5.617 8.788-11.093 13.679-15.398 11.609-10.219 22.936-21.056 35.756-29.561 43.642-28.983 76.55-26.268 115.114 9.184 10.992 10.098 20.331 21.99 31.052 33.74 5.43-4.883 10.239-10.152 15.937-14.129 19.551-13.631 39.438-26.779 59.149-40.189 7.257-4.932 12.752-2.661 18.503 3.103 19.765 19.78 18.959 48.548-2.863 71.022-110.236 113.521-220.648 226.848-330.735 340.504-13.289 13.719-28.447 19.738-47.365 19.611-60.708-0.423-121.43-0.175-182.138-0.195-33.686-0.014-67.372 0.356-101.045-0.222-27.13-0.457-47.688-21.304-47.715-47.063-0.027-26.887 18.986-46.471 46.33-48.305z" />
<glyph unicode="&#xe62a;" d="M377.154 913.761c91.023 0 182.049 0 273.072 0 0-107.615 0-215.229 0-322.844 107.614-3.138 221.057-0.448 330.915-1.345 0-91.024 0-182.050 0-273.072-110.305 0-220.61 0-330.915 0 0-112.548 0-225.092 0-337.641-91.024 0-182.050 0-273.072 0 0 112.549 0 225.093 0 337.641-110.305 0-220.611 0-330.915 0 0 91.023 0 182.048 0 273.072 110.304 0 220.61 0 330.915 0 0 108.063 0 216.126 0 324.189z" />
<glyph unicode="&#xe62b;" d="M319.678 627.603c23.845 0 43.172 19.327 43.172 43.17 0 23.839-19.327 43.17-43.172 43.17-23.844 0-43.162-19.332-43.162-43.17-0.002-23.844 19.318-43.17 43.162-43.17zM505.465 626.892c23.841 0 43.167 19.323 43.167 43.17 0 23.839-19.327 43.17-43.167 43.17-23.839 0-43.167-19.332-43.167-43.17 0-23.847 19.328-43.17 43.167-43.17zM690.235 627.603c23.842 0 43.161 19.327 43.161 43.17 0 23.839-19.32 43.17-43.161 43.17-23.845 0-43.169-19.332-43.169-43.17 0-23.844 19.322-43.17 43.169-43.17zM610.121 579.045h23.558v-370.037c0-13.371 10.878-24.2 24.248-24.2 13.361 0 24.199 10.831 24.199 24.2l-0.057 203.040h16.215l0.015-203.036c0-13.374 10.842-24.203 24.21-24.203 13.358 0 24.197 10.831 24.197 24.203l-0.038 350.062h16.269v-129.002c0-25.768 34.042-25.768 34.042 0v132.539c0 31.11-24.586 56.037-55.156 56.037h-473.734c-30.568 0-55.156-24.928-55.156-56.037v-132.539c0-25.768 34.047-25.768 34.047 0v129.002h16.266l-0.038-350.062c0-13.374 10.839-24.203 24.197-24.203 13.369 0 24.207 10.831 24.207 24.203l0.018 203.036h16.217l-0.061-203.040c0-13.371 10.837-24.2 24.2-24.2 13.368 0 24.249 10.831 24.249 24.2v370.037h72.947l-0.036-370.034c0-13.374 10.837-24.203 24.197-24.203 13.369 0 24.205 10.831 24.205 24.203l0.020 203.036h16.215l-0.061-203.040c0-13.371 10.837-24.2 24.197-24.2 13.374 0 24.253 10.831 24.253 24.2v370.037h47.949zM159.506 771.752h54.4v47.162h-101.564v-728.207h96.103v47.159h-48.939zM807.32 818.912v-47.161h54.402v-633.886h-48.939v-47.157h96.1v728.204z" />
<glyph unicode="&#xe62c;" d="M970.437 776.607c-8.245 81.111-76.937 143.725-159.198 143.725h-600.889c-82.247 0-150.928-62.581-159.189-143.672-0.558-3.432-0.851-6.954-0.851-10.545v-404.449c0-88.241 71.789-160.030 160.030-160.030h175.897l111.687-209.335c11.53-21.612 33.891-34.533 57.545-34.533 5.259 0 10.578 0.639 15.862 1.962 29.044 7.274 49.407 33.386 49.386 63.328l-0.131 178.578h190.652c88.244 0 160.037 71.789 160.037 160.030v404.449c0 3.573-0.286 7.074-0.837 10.493zM906.040 361.666c0-52.353-42.441-94.794-94.801-94.794-0.041 0-0.089 0.003-0.138 0.003v-0.003h-255.8l0.179-243.864-130.111 243.864h-215.031c-52.349 0-94.794 42.443-94.794 94.794v404.449h0.194c3.008 49.645 44.205 88.981 94.6 88.981l600.761-0.003c0.049 0 0.097 0.003 0.138 0.003 50.402 0 91.602-39.336 94.614-88.981h0.187v-404.449zM240.007 348.587h541.57l-270.783 469.013-270.786-469.013zM510.696 387.432c-18.942 0-34.299 15.351-34.299 34.294 0 18.946 15.356 34.297 34.299 34.297s34.299-15.351 34.299-34.297c0-18.944-15.358-34.294-34.299-34.294zM544.949 653.105v-125.444c0-18.944-15.358-34.3-34.299-34.3-18.939 0-34.294 15.356-34.294 34.3v125.444c0 18.942 15.356 34.295 34.294 34.295 18.942 0 34.299-15.353 34.299-34.295z" />
<glyph unicode="&#xe62d;" d="M848.118 85.82v300.908h-182.767v-300.906h-73.958v139.594h0.552v-0.115h31.458l-31.458 42.302v-0.112h-31.192v19.363h-43.576v-19.363h-84.576l-31.629-42.074h32.010v-139.594h-131.979v117.040l21.432 31.041c4.688-1.603 9.709-2.483 14.939-2.483 25.527 0 46.225 20.694 46.225 46.225 0 20.928-13.916 38.602-32.997 44.294 0.061 0.969 0.103 1.944 0.103 2.929 0 17.118-9.309 32.047-23.134 40.039 0.005 0.291 0.021 0.576 0.021 0.87 0 25.53-20.698 46.223-46.223 46.223-25.53 0-46.223-20.694-46.223-46.223 0-0.296 0.016-0.581 0.023-0.87-13.826-7.992-23.134-22.921-23.134-40.039 0-0.987 0.041-1.961 0.102-2.929-19.079-5.691-32.997-23.364-32.997-44.294 0-25.532 20.696-46.225 46.225-46.225 5.23 0 10.25 0.88 14.939 2.483l21.432-31.041v-117.040h-120.209v337.233l144.139 144.137 178.196-178.196 310.898 310.788 34.765-34.767 44.451 142.978-141.416-46.011 33.174-33.174-281.865-281.765-178.201 178.202-144.139-144.139v342.101h-41.064v-777.414h815.386v40.023h-67.73zM281.295 205.947l-21.156 30.639c6.36-3.292 13.575-5.166 21.23-5.166s14.872 1.875 21.23 5.166l-21.156-30.639h-0.148zM538.967 145.769h-53.56v53.561h53.56v-53.561zM743.769 145.769h-52.916v53.56h52.916v-53.56zM743.769 225.297h-52.916v53.563h52.916v-53.563zM743.769 304.83h-52.916v53.563h52.916v-53.563zM822.617 145.769h-52.916v53.56h52.916v-53.56zM822.617 225.297h-52.916v53.563h52.916v-53.563zM822.617 304.83h-52.916v53.563h52.916v-53.563zM395.901 603.95c-4.708-4.706-4.719-24.049 9.138-38.617 11.292-11.87 22.424-15.332 32.461-11.059 10.036 4.281 16.148 20.302 7.263 63.674 0 0 35.015-20.437 76.704-18.461 36.53 1.731 64.060 10.082 70.615 33.865 5.841 21.194-6.98 39.714-33.253 49.579-26.038 9.775-65.154 1.642-73.755-1.187-8.381-2.752-20.167-8.788-31.2-19.903l-57.973-57.891zM345.776 624.597c14.568-13.855 33.909-13.846 38.617-9.138l57.888 57.973c11.118 11.033 17.153 22.819 19.908 31.197 2.824 8.603 10.959 47.721 1.186 73.757-9.865 26.272-28.386 39.095-49.579 33.253-23.785-6.553-32.136-34.085-33.865-70.617-1.977-41.686 18.46-76.702 18.46-76.702-43.372 8.888-59.394 2.775-63.673-7.261-4.273-10.038-0.811-21.171 11.059-32.461z" />
<glyph unicode="&#xe62e;" d="M829.178 555.538c-0.33 52.888-43.117 95.304-96.176 95.24-52.081-0.043-95.75-44.274-95.24-96.483 0.543-52.56 44.349-95.846 96.453-95.283 52.824 0.563 95.271 43.743 94.964 96.526zM539.23 457.144c-10.134-9.771-19.427-20.384-30.433-32.047-3.154 4.356-4.727 6.203-5.937 8.243-25.907 43.901-51.911 87.804-77.607 131.834-10.697 18.387-23.9 24.846-44.507 21.107-15.796-2.867-21.903-15.274-27.673-27.757-52.421-114.147-104.79-228.297-156.977-342.53-11.42-25.016 1.040-44.624 28.457-44.646 148.077-0.17 296.184-0.17 444.271 0 27.566 0.023 40.546 19.823 28.873 44.499-36.88 77.926-74.121 155.671-111.587 233.331-9.988 20.734-30.255 24.017-46.879 7.967zM1020.731 775.305c0 36.594-30.179 66.177-66.859 66.177-121.17 0.063-242.338 0.043-363.52 0.043v61.821c0 7.754-4.088 14.926-10.76 18.844-6.683 3.92-14.946 3.983-21.713 0.223l-198.14-110.76c-6.926-3.846-11.184-11.153-11.184-19.077 0-7.893 4.26-15.18 11.184-19.057l198.14-110.77c3.303-1.847 6.957-2.763 10.633-2.763 3.834 0 7.657 0.999 11.078 2.976 6.672 3.94 10.76 11.1 10.76 18.864v64.5h332.896v-671.048h-826.089v671.048h121.637v95.306c-48.777 0-97.556 0-146.323 0-44.147 0-72.446-28.064-72.446-72.073-0.043-239.448-0.020-478.898-0.020-718.379 0-34.236 35.244-70.916 68.897-70.937 295.057-0.106 590.137-0.137 885.193-0.023 36.35 0.023 66.636 30.39 66.656 66.72 0.131 242.784 0.131 485.581-0.018 728.365z" />
<glyph unicode="&#xe62f;" d="M969.153 552.137l-336.591 0.182c0 0-64.33-0.844-7.412 56.9l124.252 106.203c-4.17-4.319-52.711 79.067-229.478 79.067-194.902 0-345.33-148.572-345.33-346.485 0-56.336-75.743-56.386-75.743-56.386-78.326 0-78.326 56.355-78.326 56.355 0 276.367 227.197 500.419 499.397 500.419 195.23 3.326 331.561-128.705 331.561-128.705l89.113 114.807c0 0 56.881 58.305 57.711-1.389l2.48-349.68c0-0.002 9.929-38.089-31.633-31.289zM51.104 350.421l336.593-0.199c0 0 64.328 0.858 7.447-56.881l-124.287-106.22c4.17 4.336 52.713-79.055 229.48-79.055 194.933 0 345.36 148.578 345.36 346.489 0 56.32 75.708 56.386 75.708 56.386 78.361 0 75.084-56.353 75.084-56.353 0-276.386-223.955-500.437-496.153-500.437-195.234-3.308-331.563 128.705-331.563 128.705l-89.111-114.792c0 0-56.883-58.3-57.711 1.393l-2.482 349.663c0 0-9.929 38.101 31.633 31.302z" />
<glyph unicode="&#xe630;" d="M506.643 859.404c253.166 0 467.482-204.758 467.482-457.362 0-252.572-214.316-454.322-467.482-454.322-180.429 0-336.511 100.985-411.302 252.195-30.157 60.942 94.186 87.136 122.479 34.623 58.153-104.056 166.438-140.026 288.823-140.026 184.299 0 324.229 132.755 324.229 307.592 0 180.851-142.939 316.647-324.229 316.647-149.237 0-151.869-42.925-155.754-38.947 38.712-39.511 127.744-130.376 127.744-130.376 52.873-52.795-6.94-52.011-6.94-52.011l-382.853-0.157c-38.664-6.235-29.406 28.575-29.406 28.575l-0.735 392.254c0.753 54.581 53.657 1.285 53.657 1.285l128.416-132.161c0-0.001 84.3 75.198 265.872 72.19z" />
<glyph unicode="&#xe631;" d="M1016.953 681.441c-8.997 45.072-32.969 82.614-65.583 115.208-63.838 63.717-139.903 93.114-232.233 77.156-65.868-11.387-122.239-42.060-174.768-80.179-21.068-15.282-40.477-32.682-61.958-50.225-29.495 25.283-58.817 50.366-88.050 75.518-33.95 29.125-74.338 43.882-118.813 48.534-81.064 8.448-148.437-18.874-203.762-75.409-64.143-65.573-86.696-142.096-62.005-230.070 18.078-64.36 54.667-118.626 100.669-167.334 6.398-6.799 8.798-13.152 7.815-22.29-5.655-52.247 34.431-100.669 88.531-107.065 8.733-1.049 12.095-4.116 13.515-12.804 7.096-43.915 46.131-81.402 90.976-86.587 10.785-1.255 13.273-5.523 14.715-14.397 9.388-57.42 71.565-98.703 120.646-86.325 3.494 0.897 9.302-2.052 12.378-4.911 19.038-17.707 37.181-36.327 56.394-53.838 26.657-24.257 56.676-24.005 79.337-0.24 17.203 18.012 17.902 44.374-1.966 66.032-22.028 23.994-45.65 46.928-70.693 67.92-26.089 21.889-54.843 17.465-76.327-8.471-9.628-11.581-19.825-13.82-33.206-6.529-14.541 7.913-24.693 19.517-28.187 35.564-3.797 17.533-2.183 32.379 13.865 45.99 42.463 35.99 83.29 73.804 124.684 110.975 15.393 13.842 17.357 31.908 5.108 44.243-12.247 12.37-29.823 11.921-45.017-1.649-47.878-42.725-95.668-85.559-143.352-128.461-12.794-11.518-21.897-13.885-35.631-3.484-9.517 7.215-17.596 17.586-23.054 28.142-6.265 12.118-3.625 23.425 8.428 33.851 42.768 36.973 84.49 75.114 126.585 112.853 5.022 4.495 10.26 8.788 14.803 13.677 9.103 9.849 10.217 25.36 3.056 35.578-7.162 10.174-21.307 15.249-33.862 10.643-6.156-2.259-11.745-6.691-16.658-11.047-45.279-40.237-90.102-80.996-135.819-120.744-6.701-5.818-17.508-9.325-26.679-9.89-17.793-1.069-34.648 11.69-40.958 27.791-6.484 16.572-3.559 25.238 12.945 40.083 67.375 60.606 134.685 121.291 202.037 181.895 3.252 2.927 6.681 5.675 10.392 8.755 10.523-10.076 20.107-19.999 30.501-29.102 23.208-20.261 49.363-35.772 79.163-45.672 43.25-14.377 80.716-0.809 115.689 22.401 12.882 8.579 24.955 19.202 34.888 30.849 9.912 11.626 7.424 21.035-4.104 30.99-25.149 21.68-50.432 43.239-75.583 64.92-18.95 16.318-37.792 32.725-57.418 49.746 48.337 45.879 101.302 82.156 164.135 103.932 32.225 11.158 65.366 15.852 99.381 11.092 57.616-8.090 100.080-39.887 134.705-82.897 41.437-51.458 44.319-107.383 17.289-165.39-23.818-51.175-61.96-91.924-104.577-129.063-9.693-8.428-19.956-16.232-29.714-24.123-7.051 5.317-12.509 10.041-18.579 13.865-24.713 15.466-47.069 13.951-65.714-4.096-18.776-18.151-22.555-41.316-3.539-62.951 24.277-27.728 51.481-53.477 80.169-76.947 20.392-16.701 45.261-12.642 62.986 4.311 18.055 17.281 20.503 38.939 6.113 61.25-5.196 8.057-11.919 15.186-18.536 23.482 4.891 4.039 9.345 7.684 13.797 11.352 45.826 37.585 86.129 79.884 116.433 130.339 30.374 50.612 45.918 104.462 34.218 163.256zM613.665 236.694c-21.658 18.645-49.842 17.435-68.071 0.537-21.703-20.097-23.405-47.202-1.661-70.627 21.57-23.185 44.583-45.335 68.706-66.021 9.935-8.514 24.519-11.952 37.464-17.924 10.414 4.628 19.978 6.975 27.093 12.358 26.155 19.681 30.085 47.911 7.795 72.614-22.073 24.484-46.197 47.462-71.326 69.065zM765.051 269.464c-17.115 19.29-36.067 37.267-55.867 54.059-9.89 8.385-22.684 14.508-35.238 18.731-13.558 4.542-26.745 0.469-37.749-9.322-23.011-20.457-24.082-48.173-0.328-73.345 20.5-21.733 42.070-42.725 64.952-62.058 10.676-9.062 25.631-13.439 38.599-19.943 0.612 1.092 1.18 2.181 1.749 3.285 26.833-0.635 51.524 26.087 44.669 51.032-3.715 13.439-11.399 26.986-20.787 37.562z" />
<glyph unicode="&#xe632;" d="M512.966 956.401c-281.435 0-509.588-228.32-509.588-509.875 0-281.552 228.153-509.803 509.588-509.803 281.437 0 509.589 228.251 509.589 509.803 0 281.555-228.152 509.875-509.589 509.875v0zM443.511 715.368h139.997v-199.861h182.45v-127.777h-182.45v-209.972h-139.997v209.972h-183.534v127.777h183.533v199.862h0.001z" />
<glyph unicode="&#xe633;" d="M512.444 484.979c-2.701 2.714-5.487 5.39-8.507 7.651-22.68 17.183-55.534 14.281-74.084-6.449-19.325-21.621-18.373-54.571 2.202-75.059 21.608-21.574 43.11-43.254 64.924-64.639 26.88-26.331 53.998-52.417 84.115-81.605-48.12-10.187-90.995-19.278-133.855-28.346-22.882-4.829-45.824-9.363-68.622-14.457-33.759-7.52-52.738-35.234-45.646-65.97 7.211-31.261 35.187-47.657 69.493-40.399 97.147 20.466 194.304 40.911 291.293 61.972 10.387 2.261 21.477 6.605 29.559 13.232 27.963 22.882 26.477 57.532-2.916 86.901-69.22 69.159-138.592 138.15-207.954 207.167zM350.994 640.358c22.204-11.209 46.408-7.401 64.459 10.555 44.646 44.478 89.174 89.043 135.891 135.711 45.574-45.787 89.672-90.042 133.712-134.367 23.228-23.394 56.592-24.369 79.202-2.152 22.084 21.668 21.692 55.081-1.237 77.963-57.782 57.711-115.661 115.292-173.586 172.849-21.228 21.084-54.88 21.574-76.108 0.596-58.366-57.782-116.709-115.614-174.313-174.123-7.604-7.711-13.554-18.944-15.899-29.463-5.21-23.525 7.485-47.251 27.879-57.569zM446.892 343.685c-25.833 25.702-50.786 50.536-76.323 75.93-2.439-2.214-5.687-4.915-8.675-7.891-113.687-113.197-227.371-226.466-341.033-339.712-3.023-3.023-6.117-6.046-8.747-9.435-13.138-16.873-15.575-35.508-7.389-55.118 15.137-36.246 63.412-43.219 92.922-13.445 113.269 114.328 227.74 227.455 341.713 341.068 2.927 2.904 5.439 6.14 7.533 8.604zM965.558 491.559c-59.269 1.393-118.637 0.999-177.93 1.368-5.628 0.025-11.256 0-18.469 0v106.807c-5.603-4.975-8.806-7.533-11.696-10.375-19.397-19.112-37.069-40.409-58.487-56.879-32.463-24.953-43.135-55.546-38.578-95.193 3.379-29.047 23.681-52.929 53.275-53.094 83.237-0.465 166.506-0.465 249.754 0 29.368 0.166 53.129 24.703 53.453 52.929 0.309 29.223-21.324 53.735-51.321 54.438zM912.427 659.517c60.365-1.19 110.52 47.204 112.316 108.319 1.714 58.71-48.394 109.427-109.9 111.247-59.152 1.761-110.379-47.956-112.103-108.784-1.702-59.509 47.835-109.545 109.687-110.782z" />
<glyph unicode="&#xe634;" d="M0-58.227l99.371 260.262 162.243-162.669-261.614-97.593zM447.883 158.73c-25.356-25.412-112.347-103.944-137.669-78.533l-170.105 170.551c-25.356 25.42 52.965 112.62 78.322 138.037l426.983 428.134 230.453-229.028-427.985-429.162zM998.543 710.865l-76.78-76.962-229.423 230.056 76.757 76.982c25.348 25.412 66.423 25.412 91.785 0l137.662-138.045c25.324-25.424 25.324-66.611-0.002-92.031z" />
<glyph unicode="&#xe635;" d="M665.728 159.22c0.555 0.754 1.097 1.524 1.601 2.328 89.057 181.051 65.921 550.611 59.139 584.65-5.020 25.177-25.895 32.729-39.891 34.235-20.351 2.179-59.719 2.798-96.293 2.831l-25.716 92.346h62.799c0.128-0.003 0.256-0.018 0.386-0.018 11.003 0 19.921 8.918 19.921 19.923 0 11.003-8.918 19.924-19.921 19.924v0.003l-238.805-0.003c-11.003 0-19.924-8.921-19.924-19.924 0-11.005 8.921-19.923 19.924-19.923 0.13 0 0.255 0.015 0.384 0.018h62.784l-25.698-92.346c-36.574-0.033-75.944-0.65-96.295-2.831-13.995-1.506-34.872-9.059-39.89-34.235-6.788-34.039-29.921-403.598 59.133-584.65 0.499-0.793 1.031-1.553 1.578-2.299l-74.254-188.611h45.942l67.87 172.398c42.885-2.698 117.837-1.148 117.84-1.148 0 0 74.929-1.547 117.82 1.146l67.312-172.396h45.944l-73.691 188.582zM523.218 875.61l25.765-92.525c-23.75-0.215-40.63-0.547-40.63-0.547h-0.010c0 0-16.883 0.332-40.632 0.547l25.747 92.525h29.76zM329.261 690.161c0 18.148 14.709 32.86 32.86 32.86h292.464c18.146 0 32.859-14.713 32.859-32.86 0 0 0.521-7.46 1.061-20.263h-360.308c0.54 12.803 1.064 20.263 1.064 20.263zM404.208 188.842c-17.773 0-32.171 14.397-32.171 32.166 0 17.775 14.397 32.177 32.171 32.177 17.772 0 32.169-14.402 32.169-32.177 0-17.768-14.397-32.166-32.169-32.166zM518.672 311.024v0.003l-20.642-0.003c-1.529-0.005-3.038-0.003-4.529 0.003h-1.47v0.015c-90.241 0.701-106.454 24.281-106.454 24.281v0.002c-2.192 1.81-4.217 3.806-6.079 5.954-0.002 0.002-0.002 0.002-0.002 0.003-1.92 2.215-3.657 4.589-5.172 7.113-41.335 61.272-47.711 190.89-47.284 271.716h362.622c0.427-80.825-5.949-210.444-47.284-271.716-1.517-2.524-3.251-4.898-5.172-7.113 0-0.002 0-0.002-0.002-0.003-1.862-2.148-3.888-4.144-6.077-5.954v-0.002c-0.002 0-16.918-24.622-112.456-24.299zM580.318 222.172c0 17.777 14.404 32.167 32.177 32.167 17.77 0 32.172-14.391 32.172-32.167 0-17.763-14.402-32.171-32.172-32.171-17.773 0-32.177 14.407-32.177 32.171z" />
<glyph unicode="&#xe636;" d="M511.999-64c-30.328 0-60.239 8.004-86.501 23.149l-294.204 169.618c-53.351 30.764-86.494 88.086-86.494 149.605v339.255c0 61.518 33.144 118.846 86.494 149.604l294.212 169.628c26.262 15.14 56.17 23.14 86.492 23.14s60.232-8.001 86.491-23.14l294.216-169.628c53.351-30.768 86.494-88.090 86.494-149.604l-0.008-339.255c0-61.519-33.146-118.845-86.497-149.605l-294.207-169.628c-26.255-15.136-56.166-23.14-86.494-23.14z" />
<glyph unicode="&#xe637;" d="M1009.102 378.736c-12.381 87.487-91.111 156.659-179.915 155.89-130.171-1.155-225.043-136.868-160.482-257.988 30.537-57.272 66.862-110.261 106.58-161.213 16.871-21.651 34.835-42.452 52.541-63.943 2.548 1.988 4 2.774 5.011 3.945 55.364 64.344 108.127 130.613 148.207 205.799 19.46 36.535 34.2 74.031 28.056 117.51zM828.233 290.544c-34.729 0.415-63.422 29.606-63.11 64.151 0.314 34.096 30.047 63.254 64.345 63.11 34.85-0.144 63.711-28.916 63.694-63.51-0.015-34.771-29.982-64.184-64.929-63.751zM347.777 666.634c13.865 27.2 25.645 55.283 24.73 86.717-3.504 120.975-119.483 203.682-235.782 168.608-95.947-28.916-156.795-140.445-112.971-231.685 16.648-34.674 35.147-68.947 56.935-100.558 33.753-48.996 71.048-95.57 108.417-145.256 61.441 71.994 117.671 141.711 158.671 222.174zM126.766 750.192c0.097 33.873 30.008 63.751 64.089 63.991 34.834 0.241 64.521-29.622 64.208-64.633-0.305-33.776-29.318-62.869-63.158-63.302-34.722-0.433-65.226 29.509-65.138 63.943zM282.559 245.589c-22.381-4.987-44.594-10.97-66.421-17.978-11.122-3.561-15.557-15.157-12.485-26.159 3.176-11.387 10.97-16.791 27.353-16.822 18.572 5.164 41.691 10.857 64.255 18.187 10.561 3.433 14.963 16.023 11.908 26.655-2.878 10.040-13.792 18.541-24.609 16.118zM275.606 61.041c-22.678 8.26-46.101 14.451-65.515 20.351-15.381 0.401-25.172-6.993-27.497-17.656-2.478-11.355 4.499-23.529 17.345-27.618 19.551-6.208 39.326-11.788 59.189-16.937 11.475-2.951 22.733 3.769 26.622 14.498 3.753 10.361 0.314 23.559-10.144 27.361zM417.069 40.239c-19.831 3.288-39.871 5.293-59.821 7.874-11.027 0.226-19.791-3.608-23.697-14.193-3.672-9.992-2.462-20.161 6.784-26.463 5.446-3.72 12.751-5.437 19.462-6.512 16.207-2.566 32.566-4.122 48.844-6.286 14.987-1.989 26.623 4.907 29.325 17.674 2.806 13.232-5.541 25.341-20.897 27.907zM391.697 383.419c1.435 13.873-6.84 23.977-22.028 25.854-17.137 2.118-34.353 3.608-51.53 5.374-0.017-0.113-0.024-0.241-0.040-0.353-1.644 0.064-3.288 0.176-4.932 0.208-17.096 0.321-27.465-8.051-27.842-22.469-0.361-13.727 9.237-22.516 25.781-23.896 18.051-1.524 36.054-3.53 54.12-4.795 14.466-1.010 25.164 7.473 26.471 20.078zM719.119 23.689c-19.335 0.85-38.723 1.105-58.057 0.642-14.867-0.353-23.831-9.767-23.727-22.934 0.104-13.216 8.981-22.021 23.888-22.839 9.446-0.513 18.94-0.079 24.513-0.079 12.96-0.722 21.997-1.54 31.041-1.652 15.862-0.207 26.728 8.822 27.37 22.23 0.657 13.599-9.143 23.927-25.029 24.633zM431.663 281.001c-22.036-5.052-43.967-10.761-65.506-17.594-11.475-3.624-16.102-15.493-13.271-27.312 2.302-9.639 12.013-16.407 23.865-17.93 22.797 6.864 45.893 12.959 68.282 20.977 10.808 3.881 14.819 16.375 10.673 27.12-4.097 10.634-12.302 17.434-24.042 14.74zM567.93 28.355c-19.246 1.925-38.611 2.904-57.937 3.753-15.124 0.642-25.228-8.291-25.941-21.925-0.658-12.685 8.58-22.934 22.886-24.233 15.163-1.363 30.415-1.907 45.628-2.822v-0.304h12.349c15.349 0.015 24.931 7.602 25.901 20.513 1.050 13.904-6.945 23.43-22.886 25.018zM498.301 294.168c11.162 1.957 18.428 10.939 18.492 24.843-2.606 26.767-19.133 46.045-43.078 60.143-14.979 8.805-28.403 6.88-35.981-4.875-7.249-11.211-3.881-24.089 9.976-33.6 11.868-8.131 21.691-16.744 24.995-31.963 2.309-10.666 14.795-16.456 25.596-14.547zM142.587 188.029c-2.261-0.931-7.722-2.021-11.82-4.987-22.605-16.392-31.956-58.17-18.997-82.964 5.029-9.606 16.239-15.268 25.782-12.381 11.018 3.352 19.694 11.644 17.136 22.469-4.242 17.915 1.507 31.178 10.73 45.724 9.029 14.208-2.775 31.659-22.831 32.139zM200.211 370.861c6.159 0.017 12.373-0.512 18.452 0.129 12.012 1.299 20.296 10.746 20.312 22.325 0.017 11.818-7.914 22.036-19.622 22.95-12.646 0.995-25.46 0.978-38.122 0.192-11.436-0.722-20.713-11.579-20.721-22.308-0.015-11.548 9.366-22.083 21.251-23.207 6.102-0.545 12.301-0.097 18.451-0.081zM848.001 22.469c-11.891 0.61-23.906 0.577-35.78-0.273-11.299-0.817-19.824-10.311-20.553-21.121-0.673-9.879 6.424-20.431 16.833-23.015 7.081-1.763 14.602-1.748 20.801-2.39 8.178 0.642 15.268 0.514 22.051 1.894 12.086 2.454 19.654 12.751 18.54 23.865-1.179 11.821-9.503 20.416-21.892 21.041z" />
<glyph unicode="&#xe638;" d="M656.687 761.484h-589.413c-16.010 0-28.988-12.98-28.988-28.99 0-16.011 12.979-28.988 28.988-28.988h53.584v-487.808c26.069 30.836 65.021 50.438 108.572 50.438 78.482 0 142.107-63.625 142.107-142.104 0-39.693-16.282-75.563-42.507-101.347h174.247l153.41 552.213v186.587zM656.685 878.396l-460.761-0.051c-41.561-1.105-74.937-35.026-75.118-76.811h535.88v76.862zM229.427 226.038c-56.351 0-102.024-45.67-102.024-102.011 0-56.351 45.671-102.024 102.024-102.024 56.336 0 102.008 45.671 102.008 102.024 0 56.34-45.671 102.011-102.008 102.011zM229.537 79.789c-24.425 0-44.225 19.801-44.225 44.236 0 24.415 19.8 44.225 44.225 44.225s44.225-19.808 44.225-44.225c0-24.435-19.8-44.236-44.225-44.236zM981.606 125.041c0 4.752-0.246 9.442-0.642 14.089l0.043 0.028c0 0-8.501 150.252-139.994 253.854l43.492 63.348c-20.675 9.87-42.781 15.414-67.174 15.414-0.187 0-0.371-0.008-0.56-0.008-0.184 0-0.369 0.008-0.553 0.008-24.397 0-46.504-5.542-67.177-15.414l43.492-63.348c-131.495-103.602-139.997-253.854-139.997-253.854l0.048-0.028c-0.396-4.647-0.644-9.338-0.644-14.089 0-0.34 0.011-0.673 0.013-1.011-0.002-0.049-0.013-0.084-0.013-0.136v-69.546c0-16.455 4.647-34.157 35.281-34.157h259.099c30.64 0 35.284 17.701 35.284 34.157v69.546c0 0.053-0.015 0.087-0.015 0.136 0.005 0.338 0.018 0.672 0.018 1.011z" />
</font>
</defs>
</svg>
